<svg width="556" height="480" viewBox="0 0 556 480" fill="none" xmlns="http://www.w3.org/2000/svg">
<path d="M148.1 146C149.9 161 157.9 163.9 163.1 163.9C168.8 163.9 173.2 160.4 176 156.7C177.7 154.2 178.3 153.6 179.7 153.6C181.1 153.6 182.5 154.8 182.5 157C182.5 160 178.1 175.9 161 175.9C146.7 175.9 136.7 165.5 136.7 146.3C136.7 124.7 149.4 116.9 161 116.9C177.9 116.9 181.9 132.1 181.9 137.3C181.9 141.1 179.4 141.4 178.1 141.6L148.1 146ZM168.3 136C167.9 129.1 163.6 125.1 158.9 125.1C151.4 125.1 148.1 131.9 147.5 139.4L168.3 136Z" fill="#034EA2"/>
<path d="M232.5 172.2C232.5 174.2 231.8 174.5 230.1 174.5H221.4C219.2 174.5 219 173.6 219 172V135.4C219 131.1 218.9 124.3 209.7 124.3C201 124.3 201 130.9 201 133.4V171.9C201 174.1 200.5 174.5 198.4 174.5H189.8C188.1 174.5 187.5 174.1 187.5 172.2V129.4C187.5 125.1 187.7 122.6 192.6 120.3C198.3 117.7 204.6 116.9 210.9 116.9C221.7 116.9 225.5 119.6 227.4 121.1C232.3 125.1 232.4 130.2 232.4 134V172.2H232.5Z" fill="#034EA2"/>
<path d="M255.6 124.3V157.8C255.6 160.9 255.7 167.9 263 168.2C265.7 168.2 267.8 168.2 267.8 171C267.8 174 261.7 175.8 257.4 175.8C251.5 175.8 247.8 173.6 245.6 171C242.6 167.3 242.5 163.4 242.5 159.9V124.2H237.3C235.3 124.2 235.3 123.8 235.3 120C235.3 118.7 235.7 118.3 237.1 118.3H242.4V112.2C242.4 110.1 242.7 109.6 244.4 108.4L252.2 103.4C253.4 102.6 253.7 102.5 254.2 102.5C255.6 102.5 255.7 104.2 255.7 105.5V118.2H263.9C265.1 118.2 266 118.2 266 119.7C266 123.7 266 124.1 264.2 124.1H255.6V124.3Z" fill="#034EA2"/>
<path d="M278.3 146C280.1 161 288.1 163.9 293.3 163.9C299 163.9 303.4 160.4 306.2 156.7C307.9 154.2 308.5 153.6 309.9 153.6C311.3 153.6 312.7 154.8 312.7 157C312.7 160 308.3 175.9 291.2 175.9C276.9 175.9 266.9 165.5 266.9 146.3C266.9 124.7 279.6 116.9 291.2 116.9C308.1 116.9 312.1 132.1 312.1 137.3C312.1 141.1 309.6 141.4 308.3 141.6L278.3 146ZM298.6 136C298.2 129.1 293.9 125.1 289.2 125.1C281.7 125.1 278.4 131.9 277.8 139.4L298.6 136Z" fill="#034EA2"/>
<path d="M331.5 172.2C331.4 173.9 331.1 174.5 329.2 174.5H320.3C318.5 174.5 317.9 174.1 317.9 172.2V126.9C317.9 123.5 318.3 122.1 321 120.7C324.7 118.6 332.5 116.9 340.8 116.9C347.5 116.9 353.8 118.6 353.8 125C353.8 128.3 351.5 130.9 348.1 130.9C345.2 130.9 344.2 129.3 342.6 126.8C341.6 125.5 340.4 123.8 337.2 123.8C331.6 123.8 331.5 127.6 331.5 130.3V172.2V172.2Z" fill="#034EA2"/>
<path d="M355.4 131C355.4 126.8 355.4 125.1 356.7 123.4C358.9 120.3 367.6 116.9 377.3 116.9C380.3 116.9 389.1 117.1 395.3 123.3C399.6 127.5 402.6 135 402.6 144C402.6 158.9 394.9 175.8 378.6 175.8C374.8 175.8 371.9 175 368.7 173V197.7C368.7 199.4 368.2 200 366.5 200H358C356.3 200 355.3 199.8 355.3 197.7V131H355.4ZM368.7 164.6C372.3 166.8 375.1 167.1 376.4 167.1C384.4 167.1 388.8 157.8 388.8 146.1C388.8 131 382.3 124.9 375.5 124.9C368.9 124.9 368.8 129.5 368.8 132.5V164.6H368.7Z" fill="#034EA2"/>
<path d="M422.1 172.2C422 173.9 421.7 174.5 419.8 174.5H410.9C409.1 174.5 408.5 174.1 408.5 172.2V126.9C408.5 123.5 408.9 122.1 411.6 120.7C415.3 118.6 423.1 116.9 431.4 116.9C438.1 116.9 444.4 118.6 444.4 125C444.4 128.3 442.1 130.9 438.7 130.9C435.8 130.9 434.8 129.3 433.2 126.8C432.2 125.5 431 123.8 427.8 123.8C422.2 123.8 422.1 127.6 422.1 130.3V172.2V172.2Z" fill="#034EA2"/>
<path d="M452.7 110.5C448.1 110.5 445.3 107.8 445.3 104C445.3 100.2 447.9 97.2 452.7 97.2C457.4 97.2 459.6 100.2 459.7 103.7C459.9 107.7 457 110.5 452.7 110.5ZM459.6 172.1C459.6 173.8 459.4 174.5 457.2 174.5H447.8C446.1 174.5 446 174 446 172.2V120.6C446 119.1 446.2 118.3 448.1 118.3H457.3C459.4 118.3 459.6 118.8 459.7 120.7V172.1H459.6Z" fill="#034EA2"/>
<path d="M492.4 142.1C497.4 144.5 505.2 148.4 505.2 158.8C505.2 164.9 501.8 175.8 485.7 175.8C470.7 175.8 465.5 167 465.5 162.7C465.5 159.4 467.9 156.8 471 156.8C474 156.8 475.6 159 477.1 161C479.7 164.7 481.7 167.5 486 167.5C489.9 167.5 492.8 164.8 492.8 160.8C492.8 157.1 490.4 155.1 489.3 154.1C487.8 153 481.2 149.9 478.5 148.6C475.2 147.1 466.6 142.9 466.6 132.8C466.6 125.1 471.7 116.9 485.5 116.9C498.6 116.9 503.5 124.2 503.5 128.5C503.5 131.5 501.3 133.8 498.3 133.8C494.9 133.8 493.5 131.4 492.3 129.4C491.2 127.3 489.4 124.1 484.9 124.1C480.5 124.1 478.4 127.8 478.4 130.6C478.4 136 483.2 138.1 487 139.7L492.4 142.1Z" fill="#034EA2"/>
<path d="M520.7 146C522.5 161 530.5 163.9 535.7 163.9C541.4 163.9 545.8 160.4 548.6 156.7C550.3 154.2 550.9 153.6 552.3 153.6C553.7 153.6 555.1 154.8 555.1 157C555.1 160 550.7 175.9 533.6 175.9C519.3 175.9 509.3 165.5 509.3 146.3C509.3 124.7 522 116.9 533.6 116.9C550.5 116.9 554.5 132.1 554.5 137.3C554.5 141.1 552 141.4 550.7 141.6L520.7 146ZM541 136C540.6 129.1 536.3 125.1 531.6 125.1C524.1 125.1 520.8 131.9 520.2 139.4L541 136Z" fill="#034EA2"/>
<path d="M148.1 245C149.9 260 157.9 262.9 163.1 262.9C168.8 262.9 173.2 259.4 176 255.7C177.7 253.2 178.3 252.6 179.7 252.6C181.1 252.6 182.5 253.8 182.5 256C182.5 259 178.1 274.9 161 274.9C146.7 274.9 136.7 264.5 136.7 245.3C136.7 223.7 149.4 215.9 161 215.9C177.9 215.9 181.9 231.1 181.9 236.3C181.9 240.1 179.4 240.4 178.1 240.6L148.1 245ZM168.3 235C167.9 228.1 163.6 224.1 158.9 224.1C151.4 224.1 148.1 230.9 147.5 238.4L168.3 235Z" fill="#034EA2"/>
<path d="M232.7 260C232.7 264.8 232.6 267.8 228.5 270.6C225.5 272.4 218.9 274.8 209.7 274.8C188.8 274.8 187.5 264 187.5 257.1V219.3C187.5 217.6 188.4 217.2 189.8 217.2H198.7C200.3 217.1 201.1 217.5 201.1 219.4V255.7C201.1 259.3 201.2 265.8 210.5 265.8C219.2 265.8 219.3 260.6 219.3 257V219.5C219.3 217.8 219.8 217.2 221.6 217.2H230.2C231.9 217.2 232.8 217.4 232.8 219.5V260H232.7Z" fill="#034EA2"/>
<path d="M254.4 271.2C254.3 272.9 254 273.5 252.1 273.5H243.2C241.4 273.5 240.8 273.1 240.8 271.2V225.9C240.8 222.5 241.2 221.1 243.9 219.7C247.6 217.6 255.4 215.9 263.7 215.9C270.4 215.9 276.7 217.6 276.7 224C276.7 227.3 274.4 229.9 271 229.9C268.1 229.9 267.1 228.3 265.5 225.8C264.5 224.5 263.3 222.8 260.1 222.8C254.5 222.8 254.4 226.6 254.4 229.3V271.2V271.2Z" fill="#034EA2"/>
<path d="M301.8 274.9C285.9 274.9 276 262.1 276 245.4C276 228.5 286.2 215.9 302 215.9C319.7 215.9 327.4 231.6 327.7 244.7C328 260.7 318.7 274.9 301.8 274.9ZM301.3 223.9C293.9 223.9 289.9 232.8 289.9 243.7C289.9 255.8 295.1 265.8 302.3 265.8C309.2 265.8 314.1 256.5 313.6 244C313 231.2 307.7 223.9 301.3 223.9Z" fill="#034EA2"/>
<path d="M333.8 230C333.8 225.8 333.8 224.1 335.1 222.4C337.3 219.3 346 215.9 355.7 215.9C358.7 215.9 367.5 216.1 373.7 222.3C378 226.5 381 234 381 243C381 257.9 373.3 274.8 357 274.8C353.2 274.8 350.3 274 347.1 272V296.7C347.1 298.4 346.6 299 344.9 299H336.4C334.7 299 333.7 298.8 333.7 296.7V230H333.8ZM347.2 263.6C350.8 265.8 353.6 266.1 354.9 266.1C362.9 266.1 367.3 256.8 367.3 245.1C367.3 230 360.8 223.9 354 223.9C347.4 223.9 347.3 228.5 347.3 231.5V263.6H347.2Z" fill="#034EA2"/>
<path d="M396.1 245C397.9 260 405.9 262.9 411.1 262.9C416.8 262.9 421.2 259.4 424 255.7C425.7 253.2 426.3 252.6 427.7 252.6C429.1 252.6 430.5 253.8 430.5 256C430.5 259 426.1 274.9 409 274.9C394.7 274.9 384.7 264.5 384.7 245.3C384.7 223.7 397.4 215.9 409 215.9C425.9 215.9 429.9 231.1 429.9 236.3C429.9 240.1 427.4 240.4 426.1 240.6L396.1 245ZM416.3 235C415.9 228.1 411.6 224.1 406.9 224.1C399.4 224.1 396.1 230.9 395.5 238.4L416.3 235Z" fill="#034EA2"/>
<path d="M183.8 370.2C183.8 372.2 183.1 372.5 181.4 372.5H172.7C170.5 372.5 170.3 371.6 170.3 370V333.4C170.3 329.1 170.2 322.3 161 322.3C152.3 322.3 152.3 328.9 152.3 331.4V369.9C152.3 372.1 151.8 372.5 149.7 372.5H141.1C139.4 372.5 138.8 372.1 138.8 370.2V327.4C138.8 323.1 139 320.6 143.9 318.3C149.6 315.7 155.9 314.9 162.2 314.9C173 314.9 176.8 317.6 178.7 319.1C183.6 323.1 183.7 328.2 183.7 332V370.2H183.8Z" fill="#034EA2"/>
<path d="M201.3 344C203.1 359 211.1 361.9 216.3 361.9C222 361.9 226.4 358.4 229.2 354.7C230.9 352.2 231.5 351.6 232.9 351.6C234.3 351.6 235.7 352.8 235.7 355C235.7 358 231.3 373.9 214.2 373.9C199.9 373.9 189.9 363.5 189.9 344.3C189.9 322.7 202.6 314.9 214.2 314.9C231.1 314.9 235.1 330.1 235.1 335.3C235.1 339.1 232.6 339.4 231.3 339.6L201.3 344ZM221.5 334C221.1 327.1 216.8 323.1 212.1 323.1C204.6 323.1 201.3 329.9 200.7 337.4L221.5 334Z" fill="#034EA2"/>
<path d="M255.6 322.3V355.8C255.6 358.9 255.7 365.9 263 366.2C265.7 366.2 267.8 366.2 267.8 369C267.8 372 261.7 373.8 257.4 373.8C251.5 373.8 247.8 371.6 245.6 369C242.6 365.3 242.5 361.4 242.5 357.9V322.2H237.3C235.3 322.2 235.3 321.8 235.3 318C235.3 316.7 235.7 316.3 237.1 316.3H242.4V310.2C242.4 308.1 242.7 307.6 244.4 306.4L252.2 301.4C253.4 300.6 253.7 300.5 254.2 300.5C255.6 300.5 255.7 302.2 255.7 303.5V316.2H263.9C265.1 316.2 266 316.2 266 317.7C266 321.7 266 322.1 264.2 322.1H255.6V322.3Z" fill="#034EA2"/>
<path d="M300.8 341.3L291.6 370.6C291.1 372.2 290.8 372.4 289.2 372.4H282.4C280.8 372.4 280.4 372.1 279.9 370.4L264 319.7C263.7 318.6 263.6 318.2 263.6 317.7C263.6 316.2 265 316.2 265.8 316.2H274.8C276.6 316.2 277.4 316.3 277.9 318.4L287.9 354.7L298.8 318.4C299.1 317.4 299.3 316.6 300.2 316.3C300.4 316.2 302.7 316.2 303.9 316.2C305.2 316.2 305.3 316.6 305.9 318.2L317.2 354.7L327.2 318.4C327.6 316.8 327.9 316.2 329.6 316.2H336C337 316.2 338.2 316.2 338.2 317.5C338.2 317.8 338 318.7 337.8 319.5L322.1 370.3C321.6 372 321.3 372.4 319.8 372.4H312.9C311.3 372.4 310.8 372.1 310.3 370.3L300.8 341.3Z" fill="#034EA2"/>
<path d="M364.1 373.9C348.2 373.9 338.3 361.1 338.3 344.4C338.3 327.5 348.5 314.9 364.3 314.9C382 314.9 389.7 330.6 390 343.7C390.3 359.7 381 373.9 364.1 373.9ZM363.6 322.9C356.2 322.9 352.2 331.8 352.2 342.7C352.2 354.8 357.4 364.8 364.6 364.8C371.5 364.8 376.4 355.5 375.9 343C375.4 330.2 370 322.9 363.6 322.9Z" fill="#034EA2"/>
<path d="M409.6 370.2C409.5 371.9 409.2 372.5 407.3 372.5H398.4C396.6 372.5 396 372.1 396 370.2V324.9C396 321.5 396.4 320.1 399.1 318.7C402.8 316.6 410.6 314.9 418.9 314.9C425.6 314.9 431.9 316.6 431.9 323C431.9 326.3 429.6 328.9 426.2 328.9C423.3 328.9 422.3 327.3 420.7 324.8C419.7 323.5 418.5 321.8 415.3 321.8C409.7 321.8 409.6 325.6 409.6 328.3V370.2V370.2Z" fill="#034EA2"/>
<path d="M460.1 340.1L482.4 369.2C482.9 370 483.4 370.5 483.4 371C483.4 372.2 482.3 372.4 481.2 372.4H470C467.9 372.4 467.6 372.3 466.4 370.8L446.9 344.8V370.4C446.9 372.4 446.1 372.5 444.5 372.5H435.8C433.8 372.5 433.5 372.1 433.5 370.3V291.6C433.5 289.8 434.3 289.5 435.7 289.5H444.5C446.1 289.5 446.9 289.5 446.9 291.5V340.2L466.4 318.5C468 316.7 468.5 316.3 470.7 316.3H478.1C478.8 316.3 480.3 316.3 480.3 317.7C480.3 318.5 479.8 319.1 479.1 319.9L460.1 340.1Z" fill="#034EA2"/>
<path d="M182.9 417.7L192.7 437.5L214.5 441.3L198.9 450.6L207.9 470.5L188.4 456.5L172.2 465.3L175.8 447.1L156.8 432.2L178.5 435.3L182.9 417.7Z" fill="#FFCB05"/>
<path d="M101.9 32.7L114.4 59.2999L142.8 67.6999L122.3 76.8L133.9 103.4L108.7 82.5999L87.4 91.0999L92.3 68.5999L67.8 46.9L95.9 54.2L101.9 32.7Z" fill="#FFCB05"/>
<path d="M113.5 373.2L124.1 395.6L148.1 400.2L130.9 410.4L140.7 432.8L119.3 416.8L101.4 426.3L105.5 406L84.6 389.1L108.4 392.9L113.5 373.2Z" fill="#FFCB05"/>
<path d="M52.6 100.1L66.9 131.1L99.4 139.8L75.9 151.5L89.1 182.5L60.1 158.9L35.6 169.9L41.4 143.1L13.3 118.4L45.6 125.8L52.6 100.1Z" fill="#FFCB05"/>
<path d="M61.2 291.9L73.6 318.7L101.8 324.7L81.4 336.3L92.9 363.1L67.8 343.6L46.5 354.4L51.5 330.5L27.1 309.9L55.1 315L61.2 291.9Z" fill="#FFCB05"/>
<path d="M37.5 198.3L50.9 227.6L81.5 234.9L59.3 246.9L71.8 276.3L44.5 254.5L21.4 265.7L26.8 239.8L0.299988 217L30.8 223.2L37.5 198.3Z" fill="#FFCB05"/>
<path d="M249.6 431.5L258.8 449.7L279.2 452.9L264.7 461.6L273.2 479.8L254.9 467.1L239.8 475.3L243.1 458.6L225.2 445.1L245.5 447.8L249.6 431.5Z" fill="#FFCB05"/>
<path d="M312.5 429L319.3 441.9L334.3 444.2L323.6 450.5L329.9 463.5L316.5 454.5L305.4 460.3L307.8 448.4L294.6 438.8L309.5 440.6L312.5 429Z" fill="#FFCB05"/>
<path d="M363.3 406.2L370.2 418.8L385.1 421.1L374.5 427.1L380.8 439.8L367.3 430.9L356.3 436.6L358.6 425L345.5 415.6L360.4 417.4L363.3 406.2Z" fill="#FFCB05"/>
<path d="M323.9 34L333 51L352.9 57.7L338.7 62.2L347.1 79.1L329.2 65L314.4 69.1L317.6 55.6L300.2 40.8L320 46.9L323.9 34Z" fill="#FFCB05"/>
<path d="M252.3 4.19995L262.6 24.2999L285.2 31.9L269 37.5L278.5 57.5L258.1 41L241.3 46.0999L245 30L225.2 12.8L247.7 19.6L252.3 4.19995Z" fill="#FFCB05"/>
<path d="M175.8 0L187.1 23L212.1 31.1L194.1 38L204.5 60.9L182.1 42.4L163.3 48.9L167.6 30.1L145.8 10.9L170.7 18L175.8 0Z" fill="#FFCB05"/>
</svg>
