<svg width="1092" height="1086" viewBox="0 0 1092 1086" fill="none" xmlns="http://www.w3.org/2000/svg">
<path d="M950.49 940.86L970.49 990.14H987.56L976.34 941.84L950.49 940.86Z" fill="#C7D6D8"/>
<path d="M872.77 917L892.77 966.27H909.84L898.62 917.97L872.77 917Z" fill="#C7D6D8"/>
<path d="M643.91 936.86C637.243 953.293 630.577 969.72 623.91 986.14H606.83L618.05 937.84L643.91 936.86Z" fill="#E5E1DA"/>
<path d="M835.54 687.82C864.801 683.752 894.464 683.46 923.8 686.95C949.39 690.06 963.33 694.85 972.25 705.95C982.34 718.54 981.61 733.84 980.9 751.81C980.01 774.66 978.9 807.99 978.1 853.86C933.936 861.852 889.338 867.228 844.54 869.96C787.18 873.46 742.9 871.57 710.65 870.15C671.19 868.42 637.76 865.4 612.58 862.64C607.979 852.918 604.403 842.743 601.91 832.28C597.68 814.42 599.44 808.87 597.59 768.28C596.46 743.57 594.81 741.17 597.59 734.53C605.82 714.84 631.95 708.05 648.59 704.25C726.29 686.57 754.25 698.34 835.54 687.82Z" fill="#EFEFEF"/>
<path d="M1037.44 934.25C1038.67 930.319 1039.63 926.31 1040.31 922.25C1041.56 914.488 1041.75 906.593 1040.88 898.78C1038.88 879.06 1042.95 861.03 1040.31 802C1039.66 787.55 1038.9 777 1031.15 768.22C1030.15 767.06 1019.64 755.51 1006.52 757.34C998.24 758.49 992.87 764.44 990.52 767.07C970.07 789.72 966.92 866.64 966.63 874.87C961.22 882.036 954.572 888.176 947 893C920 910 891 902.14 859.52 900.35C797.52 896.83 807.01 913.35 751.74 909.03C711.25 905.9 691.67 895.94 633.11 894.25C621.44 893.92 611.88 894.01 605.72 894.14C605.08 889.68 604.19 878.91 610.3 868.38C612.018 865.434 614.139 862.741 616.6 860.38C608.38 841.98 600.22 824.38 591.98 807.13C589.44 801.79 585.83 794.5 578.24 791.67C570.65 788.84 561.4 791.21 555.9 796.25C545.97 805.36 548.78 823.1 550.75 834.61C556.27 866.84 562.39 902.42 569.65 942.26C576.42 942.55 591.12 943.19 609.65 944.11C657.4 946.46 1027.09 965.28 1037.44 934.25Z" fill="#E0E0E0"/>
<path d="M975.75 856.53C974.942 855.516 974.063 854.56 973.12 853.67C958.55 840.25 910.92 846.3 852.03 847.77L847.9 847.86C788.2 849.25 759.24 851.13 726.68 852.35C650.68 855.22 609.42 852.48 604.18 867.01C602.68 871.18 600.48 886.94 605.47 892.64L605.69 892.89C608.776 896.309 612.516 899.074 616.69 901.02C732.792 917.972 850.789 917.298 966.69 899.02C970.367 897.093 973.573 894.378 976.079 891.069C978.586 887.76 980.331 883.938 981.19 879.877C982.05 875.816 982.003 871.615 981.052 867.574C980.101 863.533 978.27 859.752 975.69 856.5L975.75 856.53Z" fill="#F7F7F7"/>
<path d="M642.86 762.85C645.572 762.85 647.77 760.652 647.77 757.94C647.77 755.228 645.572 753.03 642.86 753.03C640.148 753.03 637.95 755.228 637.95 757.94C637.95 760.652 640.148 762.85 642.86 762.85Z" fill="#BCD6E2"/>
<path d="M653.14 813.8C655.852 813.8 658.05 811.602 658.05 808.89C658.05 806.178 655.852 803.98 653.14 803.98C650.428 803.98 648.23 806.178 648.23 808.89C648.23 811.602 650.428 813.8 653.14 813.8Z" fill="#BCD6E2"/>
<path d="M921.14 750C923.852 750 926.05 747.802 926.05 745.09C926.05 742.378 923.852 740.18 921.14 740.18C918.428 740.18 916.23 742.378 916.23 745.09C916.23 747.802 918.428 750 921.14 750Z" fill="#BCD6E2"/>
<path d="M909.85 800.95C912.562 800.95 914.76 798.752 914.76 796.04C914.76 793.328 912.562 791.13 909.85 791.13C907.138 791.13 904.94 793.328 904.94 796.04C904.94 798.752 907.138 800.95 909.85 800.95Z" fill="#BCD6E2"/>
<path d="M632.02 452.09H497.14V509.19H632.02V452.09Z" fill="#EFEFEF"/>
<path opacity="0.44" d="M614.18 464.36H513.18V496.08H614.18V464.36Z" stroke="#FFF8FE" stroke-width="2" stroke-miterlimit="10"/>
<path opacity="0.82" d="M513.18 496.25L614.18 464.36V496.08L513.18 496.25Z" fill="white"/>
<path d="M742.45 333.26H607.57V433.4H742.45V333.26Z" fill="#EFEFEF"/>
<path opacity="0.44" d="M724.62 350.24H623.62V418.29H724.62V350.24Z" stroke="#FFF8FE" stroke-width="2" stroke-miterlimit="10"/>
<path opacity="0.82" d="M623.62 418.65L724.62 350.24V418.24L623.62 418.65Z" fill="white"/>
<path d="M1035.19 358.59H853.95V481.2H1035.19V358.59Z" fill="#EFEFEF"/>
<path opacity="0.44" d="M1011.22 379.38H875.5V462.69H1011.22V379.38Z" stroke="#FFF8FE" stroke-width="2" stroke-miterlimit="10"/>
<path opacity="0.82" d="M875.5 463.14L1011.22 379.38V462.7L875.5 463.14Z" fill="white"/>
<path d="M783.82 451.27H648.94V553.72H783.82V451.27Z" fill="#EFEFEF"/>
<path opacity="0.44" d="M765.98 468.76H664.98V541.17H765.98V468.76Z" stroke="#FFF8FE" stroke-width="2" stroke-miterlimit="10"/>
<path opacity="0.82" d="M665 541.16L766 465.83V540.77L665 541.16Z" fill="white"/>
<path d="M915.87 502.49H841.48V614.43H915.87V502.49Z" fill="#EFEFEF"/>
<path opacity="0.44" d="M906.03 513.94H850.33V604.17H906.03V513.94Z" stroke="#FFF8FE" stroke-width="2" stroke-miterlimit="10"/>
<path opacity="0.82" d="M850.33 604.17C868.903 574.09 887.47 544.013 906.03 513.94V603.69L850.33 604.17Z" fill="white"/>
<path opacity="0.5" d="M1059.55 273.15H452.89V1059H1059.55V273.15Z" fill="white"/>
<path d="M810.47 624.56C821.98 633.09 842.89 612.21 863.77 621.68C870.9 624.92 875.37 630.48 877.96 634.47C875.241 630.437 872.777 626.239 870.58 621.9C846.16 573.78 861.74 522.24 865.36 510.24C879.48 463.52 910.06 435.13 928.16 419.78C1004.45 355.02 1050.46 378.32 1088.38 332.15C1107.07 309.4 1110.76 285.64 1110.27 171.96C1109.63 23.12 1109.09 -51.3 1098.49 -67.12C1036.98 -158.99 878.49 -65.28 537.23 -87.48C456.32 -92.75 375.12 -91.48 294.08 -94.01C236.64 -95.82 169.78 -98.13 83.3201 -82.01C55.1376 -76.7391 27.2577 -69.9627 -0.199951 -61.71C65.8501 69.46 131.7 106.9 182 114.92C244.78 124.92 273.81 90.39 326 110.6C398.43 138.66 375 239.6 455.6 281.96C506.47 308.71 528.76 275.35 603.82 306.7C625.45 315.7 679.69 338.39 710.47 391.4C733.96 431.85 720.59 456.81 745.76 527.22C754.722 552.262 765.993 576.416 779.43 599.37C787.31 590.58 796.64 582.01 801.9 584.46C810.34 588.37 799 616.06 810.47 624.56Z" fill="#CAE8EF"/>
<g opacity="0.76">
<path opacity="0.76" d="M810.47 624.56C821.98 633.09 842.89 612.21 863.77 621.68C870.9 624.92 875.37 630.48 877.96 634.47C875.241 630.437 872.777 626.239 870.58 621.9C846.16 573.78 861.74 522.24 865.36 510.24C879.48 463.52 910.06 435.13 928.16 419.78C1004.45 355.02 1050.46 378.32 1088.38 332.15C1107.07 309.4 1110.76 285.64 1110.27 171.96C1109.63 23.12 1109.09 -51.3 1098.49 -67.12C1036.98 -158.99 878.49 -65.28 537.23 -87.48C456.32 -92.75 375.12 -91.48 294.08 -94.01C236.64 -95.82 169.78 -98.13 83.3201 -82.01C55.1376 -76.7391 27.2577 -69.9627 -0.199951 -61.71C65.8501 69.46 131.7 106.9 182 114.92C244.78 124.92 273.81 90.39 326 110.6C398.43 138.66 375 239.6 455.6 281.96C506.47 308.71 528.76 275.35 603.82 306.7C625.45 315.7 679.69 338.39 710.47 391.4C733.96 431.85 720.59 456.81 745.76 527.22C754.722 552.262 765.993 576.416 779.43 599.37C787.31 590.58 796.64 582.01 801.9 584.46C810.34 588.37 799 616.06 810.47 624.56Z" fill="#A6CFE8"/>
</g>
<path d="M859.52 5.2001C860.464 4.28988 861.603 3.60601 862.85 3.2001C864.406 2.59411 866.134 2.59411 867.69 3.2001C868.685 3.66112 869.534 4.38582 870.146 5.2955C870.757 6.20518 871.108 7.26506 871.16 8.36007C871.23 11.2301 868.89 13.0701 867.68 14.0201C866.746 14.7467 865.694 15.3081 864.57 15.6801C864.33 14.8601 864.05 14.0001 863.72 13.1301C862.663 10.3189 861.252 7.654 859.52 5.2001Z" fill="#339DB5"/>
<path d="M860.25 4.7901C859.488 5.13736 858.81 5.64643 858.265 6.28192C857.719 6.91742 857.318 7.66409 857.09 8.47009C856.39 11.8801 859.88 16.1201 863.52 15.8801C867.42 15.6301 870.52 10.3101 868.78 6.96008C867.4 4.24008 863.17 3.3701 860.25 4.7901Z" fill="#A7D9EA"/>
<path d="M1083.83 291.67L1084.77 286.21C1090.34 295.315 1095.06 304.912 1098.88 314.88C1099.63 316.84 1100.34 318.78 1100.99 320.7C1100.61 322.45 1100.22 324.21 1099.84 325.97L1083.83 291.67Z" fill="#488AAF"/>
<path d="M1072.06 302.5C1073.9 300.73 1075.81 298.94 1077.81 297.13C1079.81 295.32 1081.89 293.5 1083.89 291.81C1088.13 298.803 1091.88 306.084 1095.1 313.6C1096.96 317.93 1098.54 322.11 1099.9 326.11L1096.81 328.5C1096.81 328.5 1091.97 323.25 1086.93 317.89C1085.66 316.54 1083.72 314.49 1081.2 311.89C1077.49 308 1074.35 304.8 1072.06 302.5Z" fill="#6EB7D3"/>
<path d="M1072.06 302.5C1072.55 300.373 1073.04 298.247 1073.51 296.12L1084.82 286.35L1083.89 291.81L1072.06 302.5Z" fill="#4DA8C4"/>
<path d="M273.78 47L274.71 41.54C280.286 50.6399 285.013 60.2337 288.83 70.2C289.583 72.16 290.283 74.1 290.93 76.02L289.79 81.29L273.78 47Z" fill="#488AAF"/>
<path d="M262 57.84C263.83 56.07 265.75 54.28 267.74 52.48C269.73 50.68 271.83 48.84 273.83 47.15C278.067 54.1449 281.813 61.4258 285.04 68.94C286.89 73.27 288.48 77.45 289.84 81.45L286.74 83.84C286.74 83.84 281.91 78.59 276.86 73.23C275.59 71.88 273.66 69.84 271.14 67.23C267.44 63.34 264.3 60.15 262 57.84Z" fill="#6EB7D3"/>
<path d="M262 57.8401L263.44 51.4601L274.76 41.6901L273.83 47.1501L262 57.8401Z" fill="#4DA8C4"/>
<path d="M290.82 89.88C290.962 89.0253 291.305 88.2164 291.82 87.52C292.402 86.5831 293.316 85.9009 294.38 85.61C295.089 85.4674 295.823 85.5195 296.504 85.7607C297.186 86.0019 297.789 86.4233 298.25 86.98C299.41 88.47 298.9 90.37 298.63 91.35C298.421 92.1027 298.083 92.8133 297.63 93.45C297.18 93.11 296.7 92.77 296.18 92.45C294.511 91.3674 292.709 90.5036 290.82 89.88Z" fill="#488AAF"/>
<path d="M291 89.37C290.732 89.8551 290.574 90.3929 290.536 90.9456C290.498 91.4984 290.581 92.0528 290.78 92.57C291.78 94.65 295.26 95.52 297.09 93.97C298.92 92.42 298.59 88.28 296.37 87.17C294.61 86.27 292 87.48 291 89.37Z" fill="#6EB7D3"/>
<path d="M396 19.0001C370.384 29.3497 346.251 43.0454 324.23 59.7301C316.99 50.3167 309.71 40.4567 302.39 30.1501C291.81 15.2101 282.063 0.606718 273.15 -13.6599C289.737 -20.4797 307.538 -23.8547 325.47 -23.5799C362.596 -18.9789 398.801 -8.73055 432.83 6.81005C420.308 10.0927 408.007 14.1641 396 19.0001Z" fill="#6EB7D3"/>
<path d="M298.51 -7.26001C301.777 -3.40001 305.057 0.653327 308.35 4.89999C316.274 15.1657 323.619 25.8657 330.35 36.95" stroke="#538EB7" stroke-width="1.5" stroke-miterlimit="10" stroke-linecap="round"/>
<path d="M303.84 -7.56995C307.113 -3.70995 310.393 0.343391 313.68 4.59006C321.597 14.8606 328.942 25.5602 335.68 36.6401" stroke="#538EB7" stroke-width="1.5" stroke-miterlimit="10" stroke-linecap="round"/>
<path d="M308.48 -9.29004C311.76 -5.41671 315.04 -1.36337 318.32 2.86996C326.257 13.1371 333.619 23.8369 340.37 34.92" stroke="#538EB7" stroke-width="1.5" stroke-miterlimit="10" stroke-linecap="round"/>
<path d="M324.37 -14.5699C327.637 -10.6966 330.917 -6.64328 334.21 -2.40994C342.125 7.86561 349.47 18.5684 356.21 29.6501" stroke="#538EB7" stroke-width="1.5" stroke-miterlimit="10" stroke-linecap="round"/>
<path d="M328.78 -15.79C332.06 -11.79 335.34 -7.7367 338.62 -3.63004C346.287 6.02996 353.54 15.5833 360.38 25.03" stroke="#538EB7" stroke-width="1.5" stroke-miterlimit="10" stroke-linecap="round"/>
<path d="M334.83 -18C338.097 -14.14 341.377 -10.0867 344.67 -5.84C351.982 3.62093 358.804 13.4505 365.11 23.61" stroke="#538EB7" stroke-width="1.5" stroke-miterlimit="10" stroke-linecap="round"/>
<path d="M338.63 -19.95C341.89 -16.09 345.18 -12.0299 348.46 -7.78995C355.753 1.65175 362.562 11.4577 368.86 21.5901" stroke="#538EB7" stroke-width="1.5" stroke-miterlimit="10" stroke-linecap="round"/>
<path d="M316 -23.52C332.294 -16.6907 347.809 -8.13524 362.28 2C368.73 6.5 374.62 11.08 379.97 15.59C383.146 13.6633 386.47 11.9914 389.91 10.59C406.73 3.78 422.57 4.9 432.25 6.59C398.292 -8.76775 362.225 -18.9508 325.25 -23.62L316 -23.52Z" fill="#9CD8E5"/>
<path d="M772.86 16.42C790.865 17.6912 808.622 21.3395 825.67 27.27C828.27 19.9366 830.803 12.34 833.27 4.48C836.843 -6.93333 839.957 -17.9734 842.61 -28.64C836.656 -29.0885 830.671 -28.9243 824.75 -28.15C819.084 -27.4102 813.506 -26.1036 808.1 -24.25C785.959 -13.9052 765.527 -0.241163 747.51 16.27C755.955 15.7882 764.421 15.8383 772.86 16.42Z" fill="#53A9C4"/>
<path d="M828.11 -19.5499C826.85 -16.4899 825.627 -13.3099 824.44 -10.0099C821.586 -2.02836 819.173 6.10389 817.21 14.3501" stroke="#4D8FAA" stroke-width="1.5" stroke-miterlimit="10" stroke-linecap="round"/>
<path d="M824.73 -18.6699C823.48 -15.6099 822.25 -12.4299 821.07 -9.12991C818.212 -1.14982 815.798 6.98269 813.84 15.2301" stroke="#4D8FAA" stroke-width="1.5" stroke-miterlimit="10" stroke-linecap="round"/>
<path d="M821.5 -18.7999C820.25 -15.7399 819.02 -12.5599 817.84 -9.25995C814.979 -1.27995 812.562 6.85254 810.6 15.1001" stroke="#4D8FAA" stroke-width="1.5" stroke-miterlimit="10" stroke-linecap="round"/>
<path d="M810.57 -18.87C809.31 -15.81 808.09 -12.6333 806.91 -9.34C804.051 -1.36611 801.634 6.75959 799.67 15" stroke="#4D8FAA" stroke-width="1.5" stroke-miterlimit="10" stroke-linecap="round"/>
<path d="M807.58 -18.75C806.34 -15.6233 805.12 -12.4433 803.92 -9.20999C801.1 -1.66332 798.517 5.73334 796.17 12.98" stroke="#4D8FAA" stroke-width="1.5" stroke-miterlimit="10" stroke-linecap="round"/>
<path d="M803.37 -18.9099C802.12 -15.8499 800.89 -12.6699 799.71 -9.3699C797.075 -2.01601 794.816 5.46694 792.94 13.0501" stroke="#4D8FAA" stroke-width="1.5" stroke-miterlimit="10" stroke-linecap="round"/>
<path d="M800.63 -19.34C799.37 -16.2933 798.147 -13.1166 796.96 -9.80997C794.332 -2.47271 792.079 4.99362 790.21 12.56" stroke="#4D8FAA" stroke-width="1.5" stroke-miterlimit="10" stroke-linecap="round"/>
<path d="M814 -26.14C805.238 -18.6289 797.306 -10.2008 790.34 -1C787.24 3.1 784.5 7.13 782.09 11C779.729 10.4509 777.328 10.0865 774.91 9.91C765.488 9.34807 756.096 11.426 747.79 15.91C765.795 -0.473894 786.15 -14.0711 808.18 -24.43L814 -26.14Z" fill="#A7D9EA"/>
<path d="M1053.76 120.36C1028.31 109.578 1001.54 102.211 974.16 98.45C975.7 86.67 977.52 74.5433 979.62 62.07C982.69 44.02 986.16 26.78 989.89 10.39C1006.44 17.3085 1021.41 27.5147 1033.89 40.39C1056.91 69.8987 1075.3 102.747 1088.41 137.8C1077.24 131.26 1065.67 125.435 1053.76 120.36Z" fill="#6ABFD3"/>
<path d="M1003.37 32.87C1002.95 37.92 1002.42 43.11 1001.74 48.43C1000.1 61.3106 997.739 74.0901 994.68 86.71" stroke="#4D8FAA" stroke-width="1.5" stroke-miterlimit="10" stroke-linecap="round"/>
<path d="M1007.36 36.42C1006.95 41.42 1006.41 46.66 1005.73 51.98C1004.09 64.8573 1001.73 77.6336 998.67 90.25" stroke="#4D8FAA" stroke-width="1.5" stroke-miterlimit="10" stroke-linecap="round"/>
<path d="M1011.86 38.48C1011.45 43.5266 1010.91 48.7166 1010.23 54.05C1008.59 66.9272 1006.23 79.7035 1003.17 92.32" stroke="#4D8FAA" stroke-width="1.5" stroke-miterlimit="10" stroke-linecap="round"/>
<path d="M1026.84 46C1026.42 51.0467 1025.88 56.2333 1025.21 61.56C1023.57 74.4373 1021.21 87.2135 1018.15 99.83" stroke="#4D8FAA" stroke-width="1.5" stroke-miterlimit="10" stroke-linecap="round"/>
<path d="M1030.83 48.23C1030.34 53.3566 1029.79 58.5433 1029.2 63.79C1027.79 76.0566 1026.17 87.9466 1024.34 99.46" stroke="#4D8FAA" stroke-width="1.5" stroke-miterlimit="10" stroke-linecap="round"/>
<path d="M1036.69 50.9301C1036.27 55.9767 1035.72 61.1667 1035.05 66.5001C1033.54 78.364 1031.42 90.1428 1028.71 101.79" stroke="#4D8FAA" stroke-width="1.5" stroke-miterlimit="10" stroke-linecap="round"/>
<path d="M1040.73 52.25C1040.32 57.29 1039.77 62.4767 1039.1 67.81C1037.59 79.6464 1035.48 91.3983 1032.77 103.02" stroke="#4D8FAA" stroke-width="1.5" stroke-miterlimit="10" stroke-linecap="round"/>
<path d="M1027.2 33.6901C1033.93 50.0397 1038.89 67.0635 1042 84.4701C1043.38 92.2201 1044.32 99.6201 1044.92 106.59C1048.52 107.488 1052.05 108.665 1055.47 110.11C1072.18 117.17 1082.61 129.17 1088.27 137.19C1075.09 102.323 1056.77 69.6271 1033.9 40.1901L1027.2 33.6901Z" fill="#B9E4EF"/>
<path d="M674.11 317.7C652.608 306.121 629.669 297.436 605.89 291.87C608.03 281.57 610.44 270.997 613.12 260.15C617.02 244.43 621.22 229.46 625.59 215.27C639.658 222.754 652.085 232.978 662.14 245.34C680.306 273.307 694.183 303.835 703.31 335.91C693.965 329.238 684.213 323.157 674.11 317.7Z" fill="#D3F0F4"/>
<path d="M635.47 236.54C634.723 241.013 633.85 245.597 632.85 250.29C630.417 261.648 627.356 272.862 623.68 283.88" stroke="#7FC1CC" stroke-width="1.5" stroke-miterlimit="10" stroke-linecap="round"/>
<path d="M638.76 240C638.013 244.473 637.14 249.057 636.14 253.75C633.717 265.107 630.666 276.321 627 287.34" stroke="#7FC1CC" stroke-width="1.5" stroke-miterlimit="10" stroke-linecap="round"/>
<path d="M642.62 242.19C641.87 246.65 641 251.19 639.99 255.93C637.56 267.288 634.502 278.501 630.83 289.52" stroke="#7FC1CC" stroke-width="1.5" stroke-miterlimit="10" stroke-linecap="round"/>
<path d="M655.4 250C654.653 254.473 653.78 259.057 652.78 263.75C650.346 275.107 647.285 286.321 643.61 297.34" stroke="#7FC1CC" stroke-width="1.5" stroke-miterlimit="10" stroke-linecap="round"/>
<path d="M658.79 252.3C657.97 256.833 657.097 261.417 656.17 266.05C654 276.87 651.64 287.35 649.17 297.48" stroke="#7FC1CC" stroke-width="1.5" stroke-miterlimit="10" stroke-linecap="round"/>
<path d="M663.81 255.15C663.063 259.61 662.19 264.193 661.19 268.9C658.95 279.369 656.173 289.716 652.87 299.9" stroke="#7FC1CC" stroke-width="1.5" stroke-miterlimit="10" stroke-linecap="round"/>
<path d="M667.32 256.62C666.573 261.093 665.697 265.677 664.69 270.37C662.46 280.809 659.693 291.126 656.4 301.28" stroke="#7FC1CC" stroke-width="1.5" stroke-miterlimit="10" stroke-linecap="round"/>
<path d="M656.66 239.06C661.416 254.143 664.547 269.692 666 285.44C666.65 292.44 666.92 299.12 666.93 305.38C670.073 306.449 673.129 307.76 676.07 309.3C690.44 316.86 698.83 328.3 703.28 335.91C694.144 303.838 680.268 273.311 662.11 245.34C660.303 243.247 658.487 241.153 656.66 239.06Z" fill="#F5FBFC"/>
<path d="M1038.39 419.28C1016.89 407.699 993.957 399.013 970.18 393.45C972.32 383.15 974.727 372.573 977.4 361.72C981.31 346 985.5 331.04 989.87 316.85C1003.95 324.318 1016.38 334.545 1026.42 346.92C1044.59 374.887 1058.47 405.415 1067.6 437.49C1058.26 430.813 1048.5 424.731 1038.39 419.28Z" fill="#D3F0F4"/>
<path d="M999.76 338.12C999.013 342.593 998.137 347.177 997.13 351.87C994.699 363.224 991.641 374.434 987.97 385.45" stroke="#7FC1CC" stroke-width="1.5" stroke-miterlimit="10" stroke-linecap="round"/>
<path d="M1003.05 341.58C1002.3 346.047 1001.43 350.63 1000.43 355.33C997.997 366.685 994.936 377.895 991.26 388.91" stroke="#7FC1CC" stroke-width="1.5" stroke-miterlimit="10" stroke-linecap="round"/>
<path d="M1006.91 343.76C1006.16 348.233 1005.29 352.817 1004.28 357.51C1001.85 368.868 998.793 380.081 995.12 391.1" stroke="#7FC1CC" stroke-width="1.5" stroke-miterlimit="10" stroke-linecap="round"/>
<path d="M1019.69 351.57C1018.94 356.037 1018.07 360.62 1017.07 365.32C1014.64 376.674 1011.57 387.885 1007.9 398.9" stroke="#7FC1CC" stroke-width="1.5" stroke-miterlimit="10" stroke-linecap="round"/>
<path d="M1023.08 353.88C1022.26 358.407 1021.38 362.99 1020.45 367.63C1018.28 378.45 1015.94 388.923 1013.45 399.05" stroke="#7FC1CC" stroke-width="1.5" stroke-miterlimit="10" stroke-linecap="round"/>
<path d="M1028.1 356.72C1027.35 361.193 1026.48 365.777 1025.47 370.47C1023.23 380.938 1020.46 391.285 1017.16 401.47" stroke="#7FC1CC" stroke-width="1.5" stroke-miterlimit="10" stroke-linecap="round"/>
<path d="M1031.61 358.2C1030.86 362.66 1029.99 367.243 1028.98 371.95C1026.75 382.388 1023.98 392.705 1020.69 402.86" stroke="#7FC1CC" stroke-width="1.5" stroke-miterlimit="10" stroke-linecap="round"/>
<path d="M1020.94 340.64C1025.71 355.722 1028.86 371.27 1030.32 387.02C1030.96 394.02 1031.24 400.69 1031.25 406.96C1034.4 408.021 1037.45 409.331 1040.39 410.88C1054.76 418.43 1063.15 429.88 1067.6 437.49C1058.47 405.416 1044.58 374.888 1026.42 346.92L1020.94 340.64Z" fill="#F5FBFC"/>
<path d="M76.8 -1.24001C88.5337 -3.2139 100.007 -6.50816 111 -11.06C133.772 -20.6022 154.072 -35.2047 170.36 -53.76C180.589 -41.478 190.143 -28.6491 198.98 -15.33C215.381 9.41174 229.257 35.737 240.4 63.25C216.403 71.3738 195.418 86.5526 180.19 106.8C169.829 99.6728 159.982 91.8269 150.72 83.32C134.55 68.44 127.05 57.82 99.9 25.67C90 14 81.93 4.66 76.8 -1.24001Z" fill="#F5FBFC"/>
<path d="M131.66 39.3901C138.1 35.5701 144.76 31.2901 151.57 26.4901C165.072 16.9782 177.781 6.38686 189.57 -5.17993" stroke="#AAD7E2" stroke-width="1.5" stroke-miterlimit="10" stroke-linecap="round"/>
<path d="M157.39 73.3901C163.83 69.5701 170.49 65.2901 177.3 60.4901C190.805 50.9813 203.513 40.3897 215.3 28.8201" stroke="#AAD7E2" stroke-width="1.5" stroke-miterlimit="10" stroke-linecap="round"/>
<path d="M160.62 76.33C167.06 72.51 173.73 68.23 180.53 63.43C194.032 53.9182 206.741 43.3268 218.53 31.76" stroke="#AAD7E2" stroke-width="1.5" stroke-miterlimit="10" stroke-linecap="round"/>
<path d="M153.91 69.72C160.34 65.9 167.01 61.62 173.82 56.82C187.323 47.3055 200.031 36.7107 211.82 25.14" stroke="#AAD7E2" stroke-width="1.5" stroke-miterlimit="10" stroke-linecap="round"/>
<path d="M137.26 51.1401C145.48 45.7701 154.01 39.8301 162.73 33.2501C175.32 23.7501 186.57 14.2501 196.55 5.07007L205.28 19.2101C188.513 36.8476 169.042 51.7005 147.6 63.2101C144.16 59.1834 140.713 55.1601 137.26 51.1401Z" fill="#AAD7E2"/>
<path d="M604 -71.35C610.705 -64.2541 618.189 -57.9375 626.31 -52.52C643.228 -41.3445 662.467 -34.1634 682.57 -31.52C671.943 4.49989 655.798 38.6552 634.71 69.73C618.196 57.069 598.247 49.684 577.47 48.54C577.595 38.2137 578.44 27.9087 580 17.7C582.77 -0.139954 586.59 -10.11 596.13 -43.3C599.62 -55.34 602.32 -65.15 604 -71.35Z" fill="#F5FBFC"/>
<path d="M601.33 -15.35C606.88 -12.7 612.85 -10.11 619.23 -7.64996C631.899 -2.78107 644.942 1.05478 658.23 3.82004" stroke="#AAD7E2" stroke-width="1.5" stroke-miterlimit="10" stroke-linecap="round"/>
<path d="M589.88 17.74C595.43 20.39 601.4 22.98 607.78 25.44C620.45 30.3089 633.492 34.1447 646.78 36.91" stroke="#AAD7E2" stroke-width="1.5" stroke-miterlimit="10" stroke-linecap="round"/>
<path d="M589.35 21.29C594.9 23.94 600.87 26.53 607.25 28.99C619.92 33.8589 632.962 37.6948 646.25 40.46" stroke="#AAD7E2" stroke-width="1.5" stroke-miterlimit="10" stroke-linecap="round"/>
<path d="M590.8 13.6901C596.34 16.3301 602.31 18.9301 608.69 21.3901C621.361 26.2553 634.403 30.0911 647.69 32.86" stroke="#AAD7E2" stroke-width="1.5" stroke-miterlimit="10" stroke-linecap="round"/>
<path d="M595.88 -6.15991C603.29 -2.99991 611.24 0.10008 619.71 3.05008C631.95 7.30008 643.58 10.6301 654.4 13.2501L648.74 25.6701C629.039 22.2959 610.002 15.7974 592.35 6.4201C593.53 2.23344 594.707 -1.95991 595.88 -6.15991Z" fill="#AAD7E2"/>
<path d="M1013.07 138.41C1020.43 147.728 1028.82 156.188 1038.07 163.63C1057.4 178.995 1079.97 189.76 1104.07 195.11C1087.34 237.67 1064.11 277.379 1035.21 312.82C1016.55 295.708 993.16 284.619 968.1 281C969.361 268.488 971.503 256.081 974.51 243.87C979.77 222.53 985.51 210.87 1000.58 171.57C1006.06 157.36 1010.37 145.75 1013.07 138.41Z" fill="#F5FBFC"/>
<path d="M1003.86 206.05C1010.3 209.86 1017.27 213.64 1024.74 217.3C1039.58 224.56 1054.99 230.606 1070.81 235.38" stroke="#AAD7E2" stroke-width="1.5" stroke-miterlimit="10" stroke-linecap="round"/>
<path d="M986.44 245C992.88 248.8 999.85 252.59 1007.32 256.25C1022.16 263.507 1037.57 269.55 1053.39 274.32" stroke="#AAD7E2" stroke-width="1.5" stroke-miterlimit="10" stroke-linecap="round"/>
<path d="M985.41 249.22C991.86 253.02 998.82 256.81 1006.3 260.47C1021.14 267.725 1036.54 273.768 1052.36 278.54" stroke="#AAD7E2" stroke-width="1.5" stroke-miterlimit="10" stroke-linecap="round"/>
<path d="M988 240.15C994.45 243.95 1001.41 247.74 1008.89 251.4C1023.73 258.657 1039.13 264.7 1054.95 269.47" stroke="#AAD7E2" stroke-width="1.5" stroke-miterlimit="10" stroke-linecap="round"/>
<path d="M996.26 216.62C1004.92 221.24 1014.26 225.86 1024.19 230.33C1038.58 236.8 1052.34 242.08 1065.19 246.42L1057 260.87C1033.47 254.665 1011.07 244.751 990.66 231.5L996.26 216.62Z" fill="#AAD7E2"/>
<path d="M1061.18 195.3C1067.78 199.997 1074.9 203.922 1082.4 207" stroke="#AAD7E2" stroke-width="1.5" stroke-miterlimit="10" stroke-linecap="round"/>
<path d="M1059 199.49C1062.28 201.813 1065.69 203.946 1069.21 205.88C1072.77 207.839 1076.45 209.595 1080.21 211.14" stroke="#AAD7E2" stroke-width="1.5" stroke-miterlimit="10" stroke-linecap="round"/>
<path d="M1056.4 203.42C1059.68 205.743 1063.09 207.876 1066.62 209.81C1070.18 211.774 1073.85 213.527 1077.62 215.06" stroke="#AAD7E2" stroke-width="1.5" stroke-miterlimit="10" stroke-linecap="round"/>
<path d="M447.18 -43C454.373 -47.1067 461.797 -51.6233 469.45 -56.55C477.77 -61.94 485.53 -67.33 492.74 -72.63C492.118 -67.963 492.905 -63.2165 495 -59C498.74 -52 504.12 -52.23 513.68 -44.49C517.42 -41.49 525.99 -34.36 530.45 -22.88C532.525 -17.4793 533.52 -11.7239 533.38 -5.94L489.7 21.51C489.44 16.79 488.31 10.17 483.9 4.38C479.64 -1.20999 476.17 -0.999992 466.56 -8.62C460.56 -13.37 455.19 -17.62 451.44 -24.62C448.5 -30.292 447.035 -36.6129 447.18 -43Z" fill="#F5FBFC"/>
<path d="M493.35 0.470062C498.515 -3.38227 503.898 -6.9348 509.47 -10.17C513.67 -12.6 517.73 -14.7099 521.59 -16.5499" stroke="#ABD9DD" stroke-miterlimit="10" stroke-linecap="round"/>
<path d="M495 4.51001C500.166 0.662352 505.548 -2.88678 511.12 -6.12C515.32 -8.55 519.38 -10.67 523.23 -12.5" stroke="#ABD9DD" stroke-miterlimit="10" stroke-linecap="round"/>
<path d="M755.17 269.8C761.003 266.467 767.02 262.8 773.22 258.8C779.97 254.43 786.22 250.06 792.12 245.8C791.624 249.602 792.279 253.464 794 256.89C797 262.58 801.4 262.38 809.15 268.67C812.15 271.12 819.15 276.88 822.75 286.19C824.433 290.574 825.241 295.245 825.13 299.94L789.66 322.2C789.531 317.205 787.908 312.364 785 308.3C781.55 303.77 778.74 303.94 770.94 297.77C766.07 293.92 761.71 290.47 758.68 284.77C756.262 280.158 755.054 275.007 755.17 269.8Z" fill="#F5FBFC"/>
<path d="M772.16 285.17C776.353 282.05 780.72 279.172 785.24 276.55C788.64 274.55 791.94 272.86 795.06 271.37" stroke="#ABD9DD" stroke-miterlimit="10" stroke-linecap="round"/>
<path d="M774.85 287.37C779.039 284.25 783.403 281.372 787.92 278.75C791.33 276.75 794.62 275.06 797.75 273.57" stroke="#ABD9DD" stroke-miterlimit="10" stroke-linecap="round"/>
<path d="M777.78 289.13C781.967 286.005 786.331 283.123 790.85 280.5C794.25 278.5 797.55 276.82 800.68 275.33" stroke="#ABD9DD" stroke-miterlimit="10" stroke-linecap="round"/>
<path d="M780.22 290.75C784.405 287.625 788.769 284.747 793.29 282.13C796.7 280.13 799.99 278.44 803.12 276.95" stroke="#ABD9DD" stroke-miterlimit="10" stroke-linecap="round"/>
<path d="M782.83 293.35C787.015 290.221 791.379 287.34 795.9 284.72C799.3 282.72 802.6 281.03 805.73 279.55" stroke="#ABD9DD" stroke-miterlimit="10" stroke-linecap="round"/>
<path d="M785.7 295.71C789.888 292.588 794.251 289.71 798.77 287.09C802.18 285.09 805.47 283.4 808.6 281.91" stroke="#ABD9DD" stroke-miterlimit="10" stroke-linecap="round"/>
<path d="M789.86 300.07C794.049 296.941 798.416 294.06 802.94 291.44C806.34 289.44 809.64 287.75 812.76 286.27" stroke="#ABD9DD" stroke-miterlimit="10" stroke-linecap="round"/>
<path d="M791.56 302.51C795.748 299.388 800.111 296.51 804.63 293.89C808.04 291.89 811.33 290.2 814.46 288.72" stroke="#ABD9DD" stroke-miterlimit="10" stroke-linecap="round"/>
<path d="M792.62 305.1C796.805 301.971 801.169 299.09 805.69 296.47C809.09 294.47 812.39 292.78 815.52 291.3" stroke="#ABD9DD" stroke-miterlimit="10" stroke-linecap="round"/>
<path d="M794 308.38C798.165 305.257 802.505 302.376 807 299.75C810.41 297.75 813.7 296.07 816.83 294.58" stroke="#ABD9DD" stroke-miterlimit="10" stroke-linecap="round"/>
<path d="M788.25 297.74C792.44 294.614 796.807 291.732 801.33 289.11C804.73 287.11 808.03 285.42 811.15 283.94" stroke="#ABD9DD" stroke-miterlimit="10" stroke-linecap="round"/>
<path d="M779.84 263C781.812 261.032 784.14 259.457 786.7 258.36" stroke="#ABD9DD" stroke-miterlimit="10" stroke-linecap="round"/>
<path d="M780.41 264.34C781.382 263.369 782.443 262.492 783.58 261.72C784.748 260.945 785.983 260.275 787.27 259.72" stroke="#ABD9DD" stroke-miterlimit="10" stroke-linecap="round"/>
<path d="M781 265.7C782.975 263.733 785.302 262.156 787.86 261.05" stroke="#ABD9DD" stroke-miterlimit="10" stroke-linecap="round"/>
<path d="M908.91 14.17C915.06 19.72 921.66 25.39 928.73 31.1C936.44 37.32 943.98 43.02 951.27 48.22C946.609 49.0805 942.313 51.3205 938.94 54.65C933.45 60.39 935.35 65.43 930.94 76.93C929.23 81.42 925.16 91.78 915.64 99.6C911.153 103.256 905.992 105.994 900.45 107.66L860.76 74.72C865.16 73 871.09 69.86 875.22 63.86C879.22 58.08 877.93 54.86 882.15 43.34C884.79 36.15 887.15 29.73 892.65 23.99C897.153 19.395 902.747 16.0165 908.91 14.17Z" fill="#F5FBFC"/>
<path d="M897.44 40C902.707 43.7091 907.759 47.7156 912.57 52C916.19 55.23 919.46 58.43 922.41 61.52" stroke="#ABD9DD" stroke-miterlimit="10" stroke-linecap="round"/>
<path d="M895.89 44C901.152 47.7079 906.197 51.7145 911 56C914.63 59.23 917.9 62.43 920.84 65.53" stroke="#ABD9DD" stroke-miterlimit="10" stroke-linecap="round"/>
<path d="M895 48.0901C900.271 51.7939 905.323 55.8006 910.13 60.0901C913.75 63.3301 917.03 66.5301 919.97 69.6201" stroke="#ABD9DD" stroke-miterlimit="10" stroke-linecap="round"/>
<path d="M894 51.5701C899.269 55.2767 904.321 59.2833 909.13 63.5701C912.75 66.8001 916.02 70.0001 918.97 73.0901" stroke="#ABD9DD" stroke-miterlimit="10" stroke-linecap="round"/>
<path d="M892 55.62C897.269 59.3273 902.32 63.3339 907.13 67.62C910.75 70.85 914.03 74.05 916.97 77.15" stroke="#ABD9DD" stroke-miterlimit="10" stroke-linecap="round"/>
<path d="M890.3 59.9C895.57 63.606 900.621 67.6126 905.43 71.9C909.05 75.13 912.32 78.33 915.26 81.42" stroke="#ABD9DD" stroke-miterlimit="10" stroke-linecap="round"/>
<path d="M886.8 66.4501C892.07 70.156 897.121 74.1627 901.93 78.4501C905.55 81.6801 908.82 84.8801 911.77 87.9701" stroke="#ABD9DD" stroke-miterlimit="10" stroke-linecap="round"/>
<path d="M884.58 69.38C889.85 73.0863 894.901 77.0929 899.71 81.38C903.33 84.61 906.6 87.82 909.55 90.91" stroke="#ABD9DD" stroke-miterlimit="10" stroke-linecap="round"/>
<path d="M882 71.61C887.273 75.311 892.325 79.3179 897.13 83.61C900.75 86.84 904.03 90.04 906.97 93.13" stroke="#ABD9DD" stroke-miterlimit="10" stroke-linecap="round"/>
<path d="M878.63 74.4401C883.899 78.1474 888.95 82.1539 893.76 86.4401C897.38 89.6701 900.66 92.8701 903.6 95.9701" stroke="#ABD9DD" stroke-miterlimit="10" stroke-linecap="round"/>
<path d="M888.91 63.67C894.18 67.376 899.232 71.3827 904.04 75.67C907.66 78.9 910.93 82.1 913.87 85.19" stroke="#ABD9DD" stroke-miterlimit="10" stroke-linecap="round"/>
<path d="M926.38 40.4501C927.89 41.2196 929.327 42.1267 930.67 43.1601C932.046 44.2174 933.315 45.4063 934.46 46.7101" stroke="#ABD9DD" stroke-miterlimit="10" stroke-linecap="round"/>
<path d="M925 41.64C926.51 42.4095 927.946 43.3167 929.29 44.35C930.666 45.4073 931.935 46.5963 933.08 47.9" stroke="#ABD9DD" stroke-miterlimit="10" stroke-linecap="round"/>
<path d="M923.64 42.8301C925.15 43.5996 926.587 44.5068 927.93 45.5401C929.306 46.5974 930.575 47.7864 931.72 49.0901" stroke="#ABD9DD" stroke-miterlimit="10" stroke-linecap="round"/>
<path d="M589.1 66.6801C595.24 72.2267 601.843 77.87 608.91 83.61C616.62 89.83 624.17 95.5301 631.46 100.73C626.798 101.586 622.501 103.827 619.13 107.16C613.63 112.9 615.54 117.93 611.13 129.44C609.42 133.93 605.35 144.28 595.83 152.11C591.345 155.768 586.183 158.506 580.64 160.17L541 127.23C545.4 125.51 551.33 122.37 555.47 116.37C559.47 110.59 558.17 107.37 562.39 95.8501C565.04 88.6601 567.39 82.2401 572.89 76.5001C577.379 71.9129 582.955 68.535 589.1 66.6801Z" fill="#E6EFF4"/>
<path d="M577.62 92.5C582.892 96.2035 587.944 100.21 592.75 104.5C596.37 107.73 599.64 110.93 602.59 114.02" stroke="#6BA9BF" stroke-miterlimit="10" stroke-linecap="round"/>
<path d="M576.08 96.49C581.345 100.202 586.396 104.209 591.21 108.49C594.83 111.72 598.1 114.92 601.04 118.01" stroke="#6BA9BF" stroke-miterlimit="10" stroke-linecap="round"/>
<path d="M575.14 100.6C580.411 104.304 585.463 108.311 590.27 112.6C593.9 115.83 597.17 119.03 600.11 122.13" stroke="#6BA9BF" stroke-miterlimit="10" stroke-linecap="round"/>
<path d="M574.18 104.08C579.453 107.781 584.505 111.788 589.31 116.08C592.93 119.31 596.21 122.51 599.15 125.6" stroke="#6BA9BF" stroke-miterlimit="10" stroke-linecap="round"/>
<path d="M572.14 108.13C577.409 111.837 582.46 115.844 587.27 120.13C590.9 123.36 594.17 126.56 597.11 129.65" stroke="#6BA9BF" stroke-miterlimit="10" stroke-linecap="round"/>
<path d="M570.48 112.41C575.752 116.114 580.803 120.12 585.61 124.41C589.23 127.64 592.5 130.84 595.45 133.93" stroke="#6BA9BF" stroke-miterlimit="10" stroke-linecap="round"/>
<path d="M567 119C572.272 122.703 577.323 126.71 582.13 131C585.75 134.23 589.02 137.43 591.97 140.52" stroke="#6BA9BF" stroke-miterlimit="10" stroke-linecap="round"/>
<path d="M564.76 121.88C570.029 125.587 575.08 129.594 579.89 133.88C583.51 137.11 586.79 140.31 589.73 143.41" stroke="#6BA9BF" stroke-miterlimit="10" stroke-linecap="round"/>
<path d="M562.14 124.12C567.414 127.821 572.466 131.828 577.27 136.12C580.9 139.35 584.17 142.55 587.11 145.64" stroke="#6BA9BF" stroke-miterlimit="10" stroke-linecap="round"/>
<path d="M558.81 127C564.079 130.707 569.13 134.714 573.94 139C577.57 142.23 580.84 145.43 583.78 148.52" stroke="#6BA9BF" stroke-miterlimit="10" stroke-linecap="round"/>
<path d="M569.09 116.18C574.362 119.884 579.413 123.89 584.22 128.18C587.84 131.41 591.11 134.61 594.06 137.7" stroke="#6BA9BF" stroke-miterlimit="10" stroke-linecap="round"/>
<path d="M606.56 93C608.07 93.7695 609.506 94.6767 610.85 95.71C612.224 96.7697 613.496 97.9548 614.65 99.25" stroke="#6BA9BF" stroke-miterlimit="10" stroke-linecap="round"/>
<path d="M605.19 94.15C606.7 94.9195 608.136 95.8267 609.48 96.86C610.853 97.9169 612.122 99.1023 613.27 100.4" stroke="#6BA9BF" stroke-miterlimit="10" stroke-linecap="round"/>
<path d="M603.82 95.3401C605.33 96.1096 606.766 97.0167 608.11 98.0501C609.483 99.107 610.752 100.292 611.9 101.59" stroke="#6BA9BF" stroke-miterlimit="10" stroke-linecap="round"/>
<path d="M432.3 147.75C442.04 144.4 452.19 140.64 462.68 136.39C473.51 132 483.73 127.49 493.32 122.96C503.02 128.68 507.56 135.03 509.91 139.55C516.73 152.69 511.81 163.45 517.29 185.42C518.651 190.856 520.44 196.176 522.64 201.33C518.95 203.58 515.75 205.43 513.25 206.85C509.88 208.75 505.81 211.05 500.25 213.8C497.54 215.14 495.25 216.2 493.82 216.87C491.02 218.15 488.47 219.25 486.26 220.18C486.26 213.78 485.26 204.61 479.9 195.91C473.95 186.23 466.48 183.38 455.82 174.5C446.674 166.822 438.744 157.803 432.3 147.75Z" fill="#7DC2D3"/>
<path d="M484.21 135.65C485.67 135 487.21 134.27 488.78 133.44C490.52 132.53 492.13 131.6 493.61 130.68" stroke="#5992A5" stroke-miterlimit="10" stroke-linecap="round"/>
<path d="M486.7 138.14C488.16 137.49 489.7 136.76 491.26 135.93C493.01 135.01 494.62 134.08 496.1 133.16" stroke="#5992A5" stroke-miterlimit="10" stroke-linecap="round"/>
<path d="M462.67 166.55C470.75 163.697 479.083 160.53 487.67 157.05C494.203 154.383 500.49 151.683 506.53 148.95" stroke="#5992A5" stroke-miterlimit="10" stroke-linecap="round"/>
<path d="M467 168.57C475.08 165.73 483.413 162.567 492 159.08C498.52 156.413 504.803 153.713 510.85 150.98" stroke="#5992A5" stroke-miterlimit="10" stroke-linecap="round"/>
<path d="M471.21 170.54C479.29 167.687 487.623 164.52 496.21 161.04C502.73 158.373 509.013 155.673 515.06 152.94" stroke="#5992A5" stroke-miterlimit="10" stroke-linecap="round"/>
<path d="M475.06 173.53C483.133 170.683 491.467 167.517 500.06 164.03C506.58 161.363 512.863 158.663 518.91 155.93" stroke="#5992A5" stroke-miterlimit="10" stroke-linecap="round"/>
<path d="M479 176.31C487.08 173.47 495.413 170.307 504 166.82C510.52 164.153 516.807 161.453 522.86 158.72" stroke="#5992A5" stroke-miterlimit="10" stroke-linecap="round"/>
<path d="M483.37 178.83C491.45 175.983 499.783 172.817 508.37 169.33C514.897 166.663 521.183 163.963 527.23 161.23" stroke="#5992A5" stroke-miterlimit="10" stroke-linecap="round"/>
<path d="M485.34 182.33C493.42 179.483 501.753 176.317 510.34 172.83C516.86 170.163 523.143 167.463 529.19 164.73" stroke="#5992A5" stroke-miterlimit="10" stroke-linecap="round"/>
<path d="M487.78 186.68C495.86 183.827 504.193 180.663 512.78 177.19C519.3 174.523 525.583 171.82 531.63 169.08" stroke="#5992A5" stroke-miterlimit="10" stroke-linecap="round"/>
<path d="M470.2 151.8C476.3 149.98 482.67 147.87 489.27 145.41C499.728 141.521 509.958 137.044 519.91 132C529.61 137.72 534.15 144.07 536.5 148.59C543.32 161.73 538.4 172.49 543.88 194.47C545.24 199.903 547.029 205.22 549.23 210.37C545.54 212.62 542.34 214.47 539.84 215.89C536.47 217.8 532.4 220.09 526.84 222.89C519.404 226.552 511.78 229.819 504 232.68C503.11 230.93 502 228.68 500.7 226.02C500.7 226.02 498.25 220.94 496.45 216.86C492.37 207.57 493.68 190.72 491.81 180.97C490.4 173.43 485.68 162.94 470.2 151.8Z" fill="#CDEFF7"/>
<path d="M499.9 166.87C505.06 164.75 510.55 162.24 516.28 159.25C520.75 156.92 524.89 154.54 528.71 152.19" stroke="#75A7BC" stroke-miterlimit="10" stroke-linecap="round"/>
<path d="M501.62 170.37C506.78 168.25 512.28 165.74 518 162.75C522.47 160.42 526.61 158.04 530.43 155.69" stroke="#75A7BC" stroke-miterlimit="10" stroke-linecap="round"/>
<path d="M502.56 176.18C507.72 174.06 513.21 171.54 518.94 168.56C523.41 166.23 527.55 163.85 531.37 161.5" stroke="#75A7BC" stroke-miterlimit="10" stroke-linecap="round"/>
<path d="M503.5 180.5C508.65 178.38 514.15 175.86 519.88 172.87C524.34 170.54 528.49 168.17 532.3 165.81" stroke="#75A7BC" stroke-miterlimit="10" stroke-linecap="round"/>
<path d="M504.29 184.17C509.45 182.05 514.94 179.53 520.67 176.54C525.14 174.21 529.28 171.84 533.1 169.48" stroke="#75A7BC" stroke-miterlimit="10" stroke-linecap="round"/>
<path d="M505 187.84C510.16 185.72 515.66 183.2 521.39 180.22C525.85 177.89 529.99 175.51 533.81 173.16" stroke="#75A7BC" stroke-miterlimit="10" stroke-linecap="round"/>
<path d="M505 192.09C510.16 189.96 515.66 187.45 521.39 184.46C525.85 182.13 529.99 179.76 533.81 177.4" stroke="#75A7BC" stroke-miterlimit="10" stroke-linecap="round"/>
<path d="M505 196.45C510.16 194.32 515.66 191.81 521.39 188.82C525.85 186.49 529.99 184.11 533.81 181.76" stroke="#75A7BC" stroke-miterlimit="10" stroke-linecap="round"/>
<path d="M504.29 200.65C509.45 198.53 514.94 196.01 520.67 193.02C525.14 190.69 529.28 188.32 533.1 185.96" stroke="#75A7BC" stroke-miterlimit="10" stroke-linecap="round"/>
<path d="M506.25 205.05C511.41 202.92 516.91 200.41 522.64 197.42C527.1 195.09 531.24 192.71 535.06 190.36" stroke="#75A7BC" stroke-miterlimit="10" stroke-linecap="round"/>
<path d="M507.22 208.8C512.38 206.68 517.88 204.17 523.6 201.18C528.07 198.85 532.21 196.47 536.03 194.12" stroke="#75A7BC" stroke-miterlimit="10" stroke-linecap="round"/>
<path d="M508.7 213.15C513.86 211.03 519.36 208.51 525.08 205.53C529.55 203.2 533.69 200.82 537.51 198.47" stroke="#75A7BC" stroke-miterlimit="10" stroke-linecap="round"/>
<path d="M510.57 144.83C512.237 143.85 513.94 142.87 515.68 141.89L518.6 140.28" stroke="#75A7BC" stroke-miterlimit="10" stroke-linecap="round"/>
<path d="M512 147.09C513.667 146.11 515.37 145.133 517.11 144.16L520.03 142.54" stroke="#75A7BC" stroke-miterlimit="10" stroke-linecap="round"/>
<path d="M727.47 317.16C737.35 320.22 747.8 323.16 758.81 325.9C770.18 328.73 781.12 331.09 791.57 333.05C796.16 343.82 796.18 352.05 795.47 357.28C793.41 372.64 783.16 378.84 774.9 400.94C772.837 406.412 771.199 412.036 770 417.76C765.69 417.44 762 417.08 759.15 416.76C755.3 416.35 750.65 415.84 744.55 414.82C741.55 414.33 739.11 413.82 737.55 413.54C734.55 412.94 731.81 412.33 729.47 411.77C733.17 406.3 737.66 397.86 738.35 387.19C739.12 375.31 734.68 368.34 731.13 354.29C728.127 342.154 726.895 329.648 727.47 317.16Z" fill="#E2F4F7"/>
<path d="M776.79 338.35C778.35 338.68 780.02 338.98 781.79 339.23C783.79 339.51 785.59 339.69 787.33 339.81" stroke="#ABD9DD" stroke-miterlimit="10" stroke-linecap="round"/>
<path d="M777.37 342C778.94 342.33 780.61 342.63 782.37 342.88C784.37 343.15 786.18 343.34 787.92 343.45" stroke="#ABD9DD" stroke-miterlimit="10" stroke-linecap="round"/>
<path d="M741.33 351.65C749.557 354.13 758.18 356.49 767.2 358.73C774.06 360.41 780.747 361.92 787.26 363.26" stroke="#ABD9DD" stroke-miterlimit="10" stroke-linecap="round"/>
<path d="M743.67 356C751.903 358.48 760.53 360.837 769.55 363.07C776.403 364.757 783.09 366.27 789.61 367.61" stroke="#ABD9DD" stroke-miterlimit="10" stroke-linecap="round"/>
<path d="M746 360.24C754.233 362.72 762.86 365.077 771.88 367.31C778.727 369.003 785.413 370.517 791.94 371.85" stroke="#ABD9DD" stroke-miterlimit="10" stroke-linecap="round"/>
<path d="M747.37 365.13C755.61 367.61 764.237 369.967 773.25 372.2C780.11 373.887 786.797 375.4 793.31 376.74" stroke="#ABD9DD" stroke-miterlimit="10" stroke-linecap="round"/>
<path d="M749 369.89C757.233 372.37 765.86 374.727 774.88 376.96C781.727 378.647 788.413 380.16 794.94 381.5" stroke="#ABD9DD" stroke-miterlimit="10" stroke-linecap="round"/>
<path d="M751.08 374.71C759.31 377.18 767.95 379.56 776.96 381.78C783.82 383.473 790.507 384.983 797.02 386.31" stroke="#ABD9DD" stroke-miterlimit="10" stroke-linecap="round"/>
<path d="M750.65 378.89C758.89 381.36 767.52 383.74 776.53 385.96C783.39 387.647 790.077 389.157 796.59 390.49" stroke="#ABD9DD" stroke-miterlimit="10" stroke-linecap="round"/>
<path d="M750.12 384.09C758.36 386.57 766.987 388.927 776 391.16C782.86 392.853 789.547 394.367 796.06 395.7" stroke="#ABD9DD" stroke-miterlimit="10" stroke-linecap="round"/>
<path d="M756 343.63C762 345.78 768.44 347.85 775.24 349.75C786.011 352.77 796.95 355.154 808 356.89C812.59 367.67 812.61 375.89 811.9 381.13C809.9 396.49 799.6 402.69 791.33 424.79C789.281 430.264 787.656 435.887 786.47 441.61C782.16 441.29 778.47 440.93 775.62 440.61C771.77 440.2 767.12 439.69 761.02 438.67C752.823 437.306 744.707 435.49 736.71 433.23C736.99 431.23 737.38 428.59 737.87 425.54C737.87 425.54 738.87 419.71 739.72 415.14C741.78 404.73 752.61 391.14 756.72 381.67C759.94 374.37 762.17 362.54 756 343.63Z" fill="#F9F9F9"/>
<path d="M771.48 374.53C776.91 375.85 782.85 377.04 789.24 377.97C794.24 378.69 798.99 379.18 803.46 379.49" stroke="#DFF0F4" stroke-width="1.5" stroke-miterlimit="10" stroke-linecap="round"/>
<path d="M770.85 378.57C776.28 379.89 782.22 381.08 788.62 382C793.62 382.73 798.36 383.21 802.84 383.52" stroke="#DFF0F4" stroke-width="1.5" stroke-miterlimit="10" stroke-linecap="round"/>
<path d="M768.25 384.1C773.68 385.42 779.62 386.61 786.02 387.53C791.02 388.26 795.76 388.74 800.24 389.05" stroke="#DFF0F4" stroke-width="1.5" stroke-miterlimit="10" stroke-linecap="round"/>
<path d="M766.51 388.35C771.94 389.67 777.88 390.86 784.28 391.79C789.28 392.51 794.02 393 798.5 393.31" stroke="#DFF0F4" stroke-width="1.5" stroke-miterlimit="10" stroke-linecap="round"/>
<path d="M765 392C770.43 393.32 776.37 394.51 782.77 395.44C787.77 396.16 792.51 396.64 796.99 396.95" stroke="#DFF0F4" stroke-width="1.5" stroke-miterlimit="10" stroke-linecap="round"/>
<path d="M763.49 395.55C768.93 396.86 774.86 398.06 781.26 398.98C786.26 399.7 791.01 400.19 795.48 400.5" stroke="#DFF0F4" stroke-width="1.5" stroke-miterlimit="10" stroke-linecap="round"/>
<path d="M761 399.17C766.44 400.49 772.37 401.68 778.77 402.61C783.77 403.33 788.51 403.81 792.99 404.12" stroke="#DFF0F4" stroke-width="1.5" stroke-miterlimit="10" stroke-linecap="round"/>
<path d="M758.51 402.89C763.94 404.21 769.88 405.4 776.28 406.33C781.28 407.05 786.02 407.54 790.5 407.84" stroke="#DFF0F4" stroke-width="1.5" stroke-miterlimit="10" stroke-linecap="round"/>
<path d="M755.48 406C760.91 407.32 766.85 408.51 773.25 409.44C778.25 410.16 782.99 410.65 787.47 410.95" stroke="#DFF0F4" stroke-width="1.5" stroke-miterlimit="10" stroke-linecap="round"/>
<path d="M754.53 411C759.97 412.32 765.9 413.51 772.3 414.44C777.3 415.16 782.05 415.64 786.52 415.95" stroke="#DFF0F4" stroke-width="1.5" stroke-miterlimit="10" stroke-linecap="round"/>
<path d="M753.15 414.79C758.58 416.1 764.52 417.3 770.91 418.22C775.91 418.94 780.66 419.43 785.13 419.74" stroke="#DFF0F4" stroke-width="1.5" stroke-miterlimit="10" stroke-linecap="round"/>
<path d="M751.83 419.4C757.26 420.71 763.2 421.91 769.6 422.83C774.6 423.55 779.34 424.04 783.82 424.35" stroke="#DFF0F4" stroke-width="1.5" stroke-miterlimit="10" stroke-linecap="round"/>
<path d="M793 362.19C794.93 362.37 796.88 362.56 798.87 362.79C799.98 362.91 801.09 363.05 802.18 363.18" stroke="#DFF0F4" stroke-width="1.5" stroke-miterlimit="10" stroke-linecap="round"/>
<path d="M792.81 365C794.74 365.17 796.69 365.37 798.68 365.6C799.79 365.72 800.9 365.85 802 365.99" stroke="#DFF0F4" stroke-width="1.5" stroke-miterlimit="10" stroke-linecap="round"/>
<path d="M846.3 242.5C846.487 253.654 845.182 264.782 842.42 275.59L950.21 271.44C953.626 247.521 953.15 223.207 948.8 199.44C943.35 200.44 936.8 201.91 929.45 203.88C929.45 203.88 922.26 205.82 915.19 208.15C903.55 212 878.06 223.59 846.3 242.5Z" fill="#D4F0F4"/>
<path d="M892.81 226.88C900.543 225.613 908.477 224.417 916.61 223.29C925.543 222.057 934.273 220.99 942.8 220.09" stroke="#ABD9DD" stroke-miterlimit="10" stroke-linecap="round"/>
<path d="M892.81 229.64C900.543 228.36 908.477 227.16 916.61 226.04C925.543 224.807 934.273 223.74 942.8 222.84" stroke="#ABD9DD" stroke-miterlimit="10" stroke-linecap="round"/>
<path d="M892.81 232.29C900.543 231.01 908.477 229.81 916.61 228.69C925.543 227.457 934.273 226.39 942.8 225.49" stroke="#ABD9DD" stroke-miterlimit="10" stroke-linecap="round"/>
<path d="M860.82 244.46C879.68 241.727 898.797 239.137 918.17 236.69C926.95 235.583 935.683 234.517 944.37 233.49" stroke="#ABD9DD" stroke-miterlimit="10" stroke-linecap="round"/>
<path d="M856.82 249.66C877.267 247.113 897.717 244.587 918.17 242.08L944.37 238.88" stroke="#ABD9DD" stroke-miterlimit="10" stroke-linecap="round"/>
<path d="M855.42 254.88C875.98 253.08 896.897 250.95 918.17 248.49C926.977 247.463 935.71 246.397 944.37 245.29" stroke="#ABD9DD" stroke-miterlimit="10" stroke-linecap="round"/>
<path d="M855.82 258.88C876.033 257.32 896.367 255.653 916.82 253.88C925.607 253.113 934.367 252.333 943.1 251.54" stroke="#ABD9DD" stroke-miterlimit="10" stroke-linecap="round"/>
<path d="M854.62 262.88C874.72 262.14 895.387 260.94 916.62 259.28C925.5 258.573 934.263 257.793 942.91 256.94" stroke="#ABD9DD" stroke-miterlimit="10" stroke-linecap="round"/>
<path d="M853.56 268.39C874.16 267.257 895.133 265.813 916.48 264.06C925.32 263.333 934.083 262.553 942.77 261.72" stroke="#ABD9DD" stroke-miterlimit="10" stroke-linecap="round"/>
<path d="M853.56 265.81C874.16 264.69 895.133 263.247 916.48 261.48C925.32 260.747 934.083 259.97 942.77 259.15" stroke="#ABD9DD" stroke-miterlimit="10" stroke-linecap="round"/>
<path d="M854.94 256.87C875.52 255.27 896.46 253.343 917.76 251.09C926.567 250.157 935.307 249.177 943.98 248.15" stroke="#ABD9DD" stroke-miterlimit="10" stroke-linecap="round"/>
<path d="M856.12 247.24C876.5 244.493 897.053 241.827 917.78 239.24C926.54 238.16 935.273 237.107 943.98 236.08" stroke="#ABD9DD" stroke-miterlimit="10" stroke-linecap="round"/>
<path d="M846.3 242.5C876.456 220.035 911.642 205.275 948.8 199.5L949.8 204.1C934.094 207.735 919.452 214.98 907.036 225.262C894.619 235.543 884.77 248.578 878.27 263.33C873.546 255.761 866.712 249.737 858.61 246C854.701 244.236 850.553 243.056 846.3 242.5Z" fill="#F5FBFC"/>
<path d="M364.26 79.6301C364.484 92.4632 362.981 105.268 359.79 117.7L483.79 112.93C487.718 85.4136 487.174 57.4432 482.18 30.1001C475.9 31.3001 468.36 32.9401 459.9 35.2201C459.9 35.2201 451.63 37.4401 443.5 40.1201C430.14 44.5301 400.81 57.8601 364.26 79.6301Z" fill="#D4F0F4"/>
<path d="M417.78 61.6601C426.68 60.1868 435.807 58.8067 445.16 57.5201C455.44 56.1001 465.487 54.8701 475.3 53.8301" stroke="#ABD9DD" stroke-miterlimit="10" stroke-linecap="round"/>
<path d="M417.78 64.83C426.68 63.3633 435.807 61.9833 445.16 60.69C455.44 59.27 465.487 58.0433 475.3 57.01" stroke="#ABD9DD" stroke-miterlimit="10" stroke-linecap="round"/>
<path d="M417.78 67.8701C426.68 66.3967 435.807 65.0167 445.16 63.7301C455.44 62.3167 465.487 61.09 475.3 60.05" stroke="#ABD9DD" stroke-miterlimit="10" stroke-linecap="round"/>
<path d="M381 81.88C402.7 78.74 424.7 75.7567 447 72.93C457.1 71.6633 467.147 70.4367 477.14 69.25" stroke="#ABD9DD" stroke-miterlimit="10" stroke-linecap="round"/>
<path d="M376.37 87.86C399.897 84.9333 423.427 82.0267 446.96 79.14L477.1 75.46" stroke="#ABD9DD" stroke-miterlimit="10" stroke-linecap="round"/>
<path d="M374.76 93.8701C398.407 91.7968 422.473 89.3434 446.96 86.5101C457.087 85.3434 467.133 84.1167 477.1 82.8301" stroke="#ABD9DD" stroke-miterlimit="10" stroke-linecap="round"/>
<path d="M375.22 98.47C398.46 96.6767 421.853 94.7634 445.4 92.73C455.513 91.85 465.593 90.9534 475.64 90.04" stroke="#ABD9DD" stroke-miterlimit="10" stroke-linecap="round"/>
<path d="M373.84 103.07C396.973 102.23 420.76 100.85 445.2 98.93C455.407 98.1233 465.487 97.2267 475.44 96.24" stroke="#ABD9DD" stroke-miterlimit="10" stroke-linecap="round"/>
<path d="M372.61 109.41C396.323 108.117 420.46 106.45 445.02 104.41C455.18 103.57 465.26 102.673 475.26 101.72" stroke="#ABD9DD" stroke-miterlimit="10" stroke-linecap="round"/>
<path d="M372.61 106.45C396.323 105.163 420.46 103.497 445.02 101.45C455.18 100.61 465.26 99.7133 475.26 98.76" stroke="#ABD9DD" stroke-miterlimit="10" stroke-linecap="round"/>
<path d="M374.21 96.15C397.877 94.3167 421.967 92.1033 446.48 89.51C456.62 88.4367 466.677 87.31 476.65 86.13" stroke="#ABD9DD" stroke-miterlimit="10" stroke-linecap="round"/>
<path d="M375.56 85.08C399.013 81.9134 422.68 78.86 446.56 75.92C456.64 74.68 466.687 73.4667 476.7 72.28" stroke="#ABD9DD" stroke-miterlimit="10" stroke-linecap="round"/>
<path d="M364.26 79.6301C398.968 53.7486 439.477 36.745 482.26 30.1001L483.36 35.4001C465.278 39.5727 448.418 47.9053 434.121 59.7358C419.824 71.5663 408.483 86.5684 401 103.55C395.575 94.8494 387.727 87.9225 378.42 83.6201C373.924 81.596 369.152 80.2513 364.26 79.6301Z" fill="#F5FBFC"/>
<path d="M765.57 229.91C814.861 229.91 854.82 185.183 854.82 130.01C854.82 74.8368 814.861 30.11 765.57 30.11C716.279 30.11 676.32 74.8368 676.32 130.01C676.32 185.183 716.279 229.91 765.57 229.91Z" fill="#6EB7D3"/>
<path d="M755.46 237.07C804.751 237.07 844.71 192.343 844.71 137.17C844.71 81.9968 804.751 37.27 755.46 37.27C706.169 37.27 666.21 81.9968 666.21 137.17C666.21 192.343 706.169 237.07 755.46 237.07Z" fill="#AAD7E2"/>
<path d="M755.46 224.23C798.417 224.23 833.24 185.252 833.24 137.17C833.24 89.0881 798.417 50.11 755.46 50.11C712.503 50.11 677.68 89.0881 677.68 137.17C677.68 185.252 712.503 224.23 755.46 224.23Z" fill="#E4F3F9"/>
<path d="M763 75.54L755 137.54L811.49 146.78C811.458 132.762 807.821 118.987 800.93 106.78C792.587 92.0329 779.073 80.9024 763 75.54Z" fill="#B7E2ED"/>
<path d="M752.44 137.13L757.92 137.93L762.33 91.45L764.14 91.63L761.81 85.74C760.723 87.4267 759.63 89.1133 758.53 90.8L760 91.14L752.44 137.13Z" fill="#56A5C1"/>
<path d="M765.57 64.82C767.415 64.82 768.91 63.15 768.91 61.09C768.91 59.03 767.415 57.36 765.57 57.36C763.725 57.36 762.23 59.03 762.23 61.09C762.23 63.15 763.725 64.82 765.57 64.82Z" fill="#6EB7D3"/>
<path d="M745.65 214.69C747.495 214.69 748.99 213.02 748.99 210.96C748.99 208.9 747.495 207.23 745.65 207.23C743.805 207.23 742.31 208.9 742.31 210.96C742.31 213.02 743.805 214.69 745.65 214.69Z" fill="#6EB7D3"/>
<path d="M800.36 84.0301C802.205 84.0301 803.7 82.3601 803.7 80.3C803.7 78.24 802.205 76.5701 800.36 76.5701C798.515 76.5701 797.02 78.24 797.02 80.3C797.02 82.3601 798.515 84.0301 800.36 84.0301Z" fill="#6EB7D3"/>
<path d="M819.58 116.25C821.425 116.25 822.92 114.58 822.92 112.52C822.92 110.46 821.425 108.79 819.58 108.79C817.735 108.79 816.24 110.46 816.24 112.52C816.24 114.58 817.735 116.25 819.58 116.25Z" fill="#6EB7D3"/>
<path d="M807.09 186.52C808.935 186.52 810.43 184.85 810.43 182.79C810.43 180.73 808.935 179.06 807.09 179.06C805.245 179.06 803.75 180.73 803.75 182.79C803.75 184.85 805.245 186.52 807.09 186.52Z" fill="#6EB7D3"/>
<path d="M782.01 207.14C783.855 207.14 785.35 205.47 785.35 203.41C785.35 201.35 783.855 199.68 782.01 199.68C780.165 199.68 778.67 201.35 778.67 203.41C778.67 205.47 780.165 207.14 782.01 207.14Z" fill="#6EB7D3"/>
<path d="M709.14 195.01C710.985 195.01 712.48 193.34 712.48 191.28C712.48 189.22 710.985 187.55 709.14 187.55C707.295 187.55 705.8 189.22 705.8 191.28C705.8 193.34 707.295 195.01 709.14 195.01Z" fill="#6EB7D3"/>
<path d="M691.83 167.33C693.675 167.33 695.17 165.66 695.17 163.6C695.17 161.54 693.675 159.87 691.83 159.87C689.985 159.87 688.49 161.54 688.49 163.6C688.49 165.66 689.985 167.33 691.83 167.33Z" fill="#6EB7D3"/>
<path d="M702.89 95.34C704.735 95.34 706.23 93.67 706.23 91.61C706.23 89.55 704.735 87.88 702.89 87.88C701.045 87.88 699.55 89.55 699.55 91.61C699.55 93.67 701.045 95.34 702.89 95.34Z" fill="#6EB7D3"/>
<path d="M729.97 72.3101C731.815 72.3101 733.31 70.6401 733.31 68.5801C733.31 66.5201 731.815 64.8501 729.97 64.8501C728.125 64.8501 726.63 66.5201 726.63 68.5801C726.63 70.6401 728.125 72.3101 729.97 72.3101Z" fill="#6EB7D3"/>
<path d="M821.65 151.48C823.495 151.48 824.99 149.81 824.99 147.75C824.99 145.69 823.495 144.02 821.65 144.02C819.805 144.02 818.31 145.69 818.31 147.75C818.31 149.81 819.805 151.48 821.65 151.48Z" fill="#6EB7D3"/>
<path d="M690.04 130.01C691.885 130.01 693.38 128.34 693.38 126.28C693.38 124.22 691.885 122.55 690.04 122.55C688.195 122.55 686.7 124.22 686.7 126.28C686.7 128.34 688.195 130.01 690.04 130.01Z" fill="#6EB7D3"/>
<path d="M752.71 133.83L751.46 139.61L806 147.32C805.86 148.68 805.72 150.05 805.57 151.41L816.22 147.64L806.82 140C806.67 141.47 806.53 142.95 806.39 144.42L752.71 133.83Z" fill="#56A5C1"/>
<path d="M947.06 376.618C967.495 362.835 971.555 333.121 956.129 310.251C940.702 287.38 911.631 280.014 891.197 293.797C870.762 307.58 866.702 337.294 882.129 360.164C897.555 383.035 926.626 390.401 947.06 376.618Z" fill="#6EB7D3"/>
<path d="M944.868 382.421C965.302 368.638 969.362 338.924 953.936 316.054C938.51 293.184 909.439 285.817 889.004 299.6C868.57 313.384 864.51 343.097 879.936 365.967C895.363 388.838 924.433 396.204 944.868 382.421Z" fill="#AAD7E2"/>
<path d="M941.278 377.099C959.084 365.088 962.621 339.194 949.178 319.264C935.734 299.333 910.401 292.912 892.595 304.923C874.788 316.933 871.252 342.827 884.695 362.758C898.139 382.688 923.472 389.109 941.278 377.099Z" fill="#E4F3F9"/>
<path d="M902.84 313.35L916.84 341.27L942.84 329.27C938.908 323.462 933.545 318.764 927.27 315.63C919.687 311.882 910.986 311.07 902.84 313.35Z" fill="#B7E2ED"/>
<path d="M915.67 341.84L918.17 340.64L907 320.14L907.79 319.7L905.18 317.92L905.24 320.92L905.94 320.65L915.67 341.84Z" fill="#56A5C1"/>
<path d="M900.908 308.196C901.673 307.681 901.825 306.568 901.247 305.712C900.67 304.856 899.582 304.58 898.817 305.096C898.052 305.611 897.901 306.724 898.478 307.58C899.056 308.436 900.144 308.712 900.908 308.196Z" fill="#6EB7D3"/>
<path d="M934.549 375.893C935.313 375.377 935.465 374.265 934.888 373.408C934.31 372.552 933.222 372.276 932.457 372.792C931.693 373.308 931.541 374.42 932.118 375.276C932.696 376.132 933.784 376.408 934.549 375.893Z" fill="#6EB7D3"/>
<path d="M920.695 306.432C921.46 305.917 921.611 304.804 921.034 303.948C920.456 303.092 919.368 302.816 918.604 303.332C917.839 303.848 917.687 304.96 918.265 305.816C918.842 306.672 919.931 306.948 920.695 306.432Z" fill="#6EB7D3"/>
<path d="M937.674 314.413C938.439 313.897 938.591 312.785 938.013 311.929C937.436 311.073 936.348 310.797 935.583 311.312C934.818 311.828 934.667 312.94 935.244 313.797C935.822 314.653 936.91 314.929 937.674 314.413Z" fill="#6EB7D3"/>
<path d="M952.133 347.03C952.898 346.515 953.05 345.402 952.472 344.546C951.895 343.69 950.807 343.414 950.042 343.93C949.277 344.445 949.126 345.558 949.703 346.414C950.281 347.27 951.369 347.546 952.133 347.03Z" fill="#6EB7D3"/>
<path d="M947.506 362.589C948.27 362.073 948.422 360.961 947.845 360.105C947.267 359.249 946.179 358.973 945.414 359.489C944.65 360.004 944.498 361.116 945.076 361.973C945.653 362.829 946.741 363.105 947.506 362.589Z" fill="#6EB7D3"/>
<path d="M913.912 377.938C914.677 377.422 914.829 376.31 914.251 375.454C913.674 374.598 912.585 374.322 911.821 374.838C911.056 375.353 910.904 376.466 911.482 377.322C912.059 378.178 913.148 378.454 913.912 377.938Z" fill="#6EB7D3"/>
<path d="M898.995 371.315C899.76 370.799 899.912 369.687 899.334 368.831C898.757 367.974 897.669 367.699 896.904 368.214C896.139 368.73 895.988 369.842 896.565 370.698C897.143 371.555 898.231 371.831 898.995 371.315Z" fill="#6EB7D3"/>
<path d="M883.452 338.366C884.217 337.85 884.369 336.738 883.791 335.882C883.214 335.026 882.126 334.75 881.361 335.266C880.596 335.781 880.445 336.894 881.022 337.75C881.6 338.606 882.688 338.882 883.452 338.366Z" fill="#6EB7D3"/>
<path d="M888.237 321.258C889.002 320.743 889.154 319.63 888.576 318.774C887.999 317.918 886.911 317.642 886.146 318.158C885.381 318.674 885.23 319.786 885.807 320.642C886.385 321.498 887.473 321.774 888.237 321.258Z" fill="#6EB7D3"/>
<path d="M948.381 328.441C949.145 327.925 949.297 326.813 948.719 325.957C948.142 325.101 947.054 324.825 946.289 325.34C945.525 325.856 945.373 326.968 945.95 327.825C946.528 328.681 947.616 328.957 948.381 328.441Z" fill="#6EB7D3"/>
<path d="M887.81 356.338C888.575 355.822 888.726 354.71 888.149 353.854C887.571 352.997 886.483 352.721 885.719 353.237C884.954 353.753 884.802 354.865 885.38 355.721C885.957 356.577 887.046 356.853 887.81 356.338Z" fill="#6EB7D3"/>
<path d="M914.87 340.39L915.96 343.14L940.74 331.07L941.74 332.89L945.1 328.35L939.1 327.83L940.16 329.78L914.87 340.39Z" fill="#56A5C1"/>
<path d="M259.138 -17.1157C273.442 -26.7636 276.285 -47.5611 265.488 -63.568C254.691 -79.575 234.343 -84.7299 220.039 -75.082C205.736 -65.434 202.893 -44.6366 213.69 -28.6296C224.486 -12.6227 244.834 -7.46772 259.138 -17.1157Z" fill="#AAD7E2"/>
<path d="M844.73 376L849.35 378.1C850.685 377.673 852.064 377.394 853.46 377.27C855.216 376.956 857.023 377.111 858.7 377.72C860.547 378.635 861.977 380.219 862.7 382.15C862.38 379.831 861.28 377.69 859.58 376.08C856.06 372.9 850 372.74 844.73 376Z" fill="#217E9B"/>
<path d="M871.78 379.9L873.84 385.69C874.26 387.224 874.345 388.83 874.09 390.4C873.37 395.92 868.64 399.24 867.99 399.68C864.93 401.76 861.9 402.07 858.99 402.37C854.45 402.84 853.11 401.84 848.9 402.28C846.079 402.577 843.332 403.362 840.78 404.6L837.04 403.06C839.54 400.18 843.59 396.48 849.29 395.34C853.49 394.5 855.55 395.66 858.81 394.91C862.57 394 867.42 390.77 871.78 379.9Z" fill="#217E9B"/>
<path d="M838.87 367.24L844.73 375.99C846.696 375.018 848.857 374.505 851.05 374.49C852.36 374.49 859.36 374.49 861.64 379.62C863.12 382.97 862.21 387.62 859.53 389.42C856.62 391.34 854.25 388.12 847.43 388.88C843.62 389.31 840.56 390.74 837.3 392.26C834.966 393.345 832.725 394.619 830.6 396.07L837.01 403.07C838.22 401.636 839.737 400.495 841.45 399.73C844.68 398.31 847.52 398.86 849.96 399.08C851.73 399.23 860.75 400.03 866.13 396.24C870.68 393.04 872.55 386.61 872.01 381.4C870.86 370.34 859.01 365.84 858.01 365.48C848.58 362.09 840.28 366.47 838.87 367.24Z" fill="#75B9D1"/>
<path d="M827.29 402.89L829.94 404.83C830.634 405.28 831.213 405.886 831.632 406.6C832.05 407.313 832.296 408.115 832.35 408.94C832.384 409.778 832.207 410.611 831.835 411.362C831.462 412.114 830.907 412.759 830.22 413.24C828.16 414.58 825.67 413.63 824.14 413.04C823.026 412.609 821.991 411.993 821.08 411.22C821.61 410.65 822.14 410.06 822.67 409.44C824.399 407.396 825.945 405.205 827.29 402.89Z" fill="#217E9B"/>
<path d="M827.56 403.07C826.955 402.638 826.264 402.342 825.533 402.204C824.803 402.066 824.051 402.088 823.33 402.27C820.39 403.27 818.68 407.8 820.47 410.49C822.39 413.38 827.84 413.38 829.66 410.59C831.15 408.33 829.94 404.69 827.56 403.07Z" fill="#75B9D1"/>
<path d="M702.06 270.15L706.82 268.37C707.45 267.116 708.225 265.942 709.13 264.87C710.144 263.407 711.523 262.235 713.13 261.47C715.092 260.794 717.237 260.89 719.13 261.74C717.261 260.334 714.968 259.607 712.63 259.68C707.87 260 703.47 264.14 702.06 270.15Z" fill="#217E9B"/>
<path d="M723.92 253.75L729.48 256.38C730.864 257.164 732.062 258.239 732.99 259.53C736.4 263.94 735.41 269.62 735.26 270.4C734.58 274.04 732.66 276.4 730.8 278.7C727.93 282.24 726.27 282.49 723.61 285.78C721.835 287.992 720.452 290.491 719.52 293.17L715.79 294.74C715.52 290.93 715.79 285.45 718.97 280.61C721.34 277.03 723.61 276.4 725.39 273.56C727.44 270.27 728.55 264.51 723.92 253.75Z" fill="#3A97AD"/>
<path d="M691.73 268.13L702.06 270.13C702.761 268.057 703.924 266.169 705.46 264.61C706.39 263.67 711.33 258.71 716.57 260.72C719.99 262.03 722.66 265.97 722.02 269.13C721.33 272.55 717.37 271.96 713.1 277.33C710.71 280.33 709.57 283.5 708.34 286.88C707.474 289.302 706.805 291.79 706.34 294.32L715.81 294.72C715.65 292.85 715.909 290.967 716.57 289.21C717.85 285.92 720.25 284.3 722.12 282.72C723.48 281.58 730.41 275.72 731.53 269.27C732.47 263.79 729.23 257.92 725.16 254.62C716.52 247.62 704.93 252.88 703.98 253.33C694.93 257.62 692.18 266.59 691.73 268.13Z" fill="#9CD8E5"/>
<path d="M708.81 301.5L712.06 300.99C712.868 300.817 713.705 300.834 714.506 301.041C715.306 301.247 716.047 301.637 716.67 302.18C717.288 302.748 717.753 303.463 718.022 304.258C718.291 305.053 718.356 305.903 718.21 306.73C717.71 309.13 715.28 310.22 713.78 310.89C712.688 311.376 711.522 311.674 710.33 311.77C710.33 311 710.26 310.21 710.19 309.39C709.961 306.725 709.499 304.085 708.81 301.5Z" fill="#3A97AD"/>
<path d="M709.13 301.43C708.397 301.556 707.701 301.84 707.088 302.261C706.475 302.682 705.961 303.231 705.58 303.87C704.19 306.63 706.21 311.06 709.38 311.7C712.78 312.38 716.63 308.51 715.94 305.25C715.39 302.61 712 300.89 709.13 301.43Z" fill="#9CD8E5"/>
<path d="M805.25 461.58L812.06 459.49C813.056 457.799 814.244 456.229 815.6 454.81C817.46 452.86 819.05 451.18 821.52 450.39C824.318 449.625 827.302 449.95 829.87 451.3C827.375 449.169 824.229 447.949 820.95 447.84C814.27 447.81 807.75 453.29 805.25 461.58Z" fill="#6EB7D3"/>
<path d="M837.28 440.53L844.84 444.69C846.702 445.916 848.28 447.525 849.47 449.41C853.85 455.88 851.98 463.75 851.7 464.83C850.43 469.83 847.53 473 844.7 476.05C840.37 480.76 838.03 480.96 834.02 485.34C831.338 488.285 829.18 491.667 827.64 495.34L822.3 497.21C822.24 491.86 823.05 484.21 827.97 477.71C831.6 472.91 834.84 472.22 837.57 468.4C840.77 464 842.82 456 837.28 440.53Z" fill="#6EB7D3"/>
<path d="M791 457.85L805.29 461.58C806.45 458.735 808.242 456.191 810.53 454.14C811.91 452.92 819.26 446.41 826.42 449.68C831.09 451.81 834.48 457.56 833.31 461.92C832.04 466.65 826.56 465.47 820.11 472.61C816.51 476.61 814.63 480.95 812.62 485.61C811.183 488.916 810.019 492.334 809.14 495.83L822.37 497.22C822.3 494.59 822.827 491.978 823.91 489.58C825.99 485.09 829.48 483.02 832.25 480.97C834.25 479.49 844.46 471.97 846.58 462.97C848.38 455.38 844.36 446.88 838.94 441.91C827.46 431.38 810.78 437.71 809.41 438.26C796.36 443.41 791.72 455.73 791 457.85Z" fill="#E1F6F9"/>
<path d="M812 506.05L816.59 505.62C817.736 505.442 818.907 505.535 820.01 505.893C821.114 506.251 822.117 506.863 822.94 507.68C823.758 508.529 824.348 509.571 824.656 510.709C824.963 511.847 824.979 513.044 824.7 514.19C823.79 517.51 820.29 518.82 818.13 519.63C816.56 520.211 814.904 520.526 813.23 520.56C813.23 519.48 813.23 518.36 813.23 517.21C813.151 513.461 812.74 509.726 812 506.05Z" fill="#6EB7D3"/>
<path d="M812.41 506C811.86 506.07 808.72 506.54 807.23 509.1C805.05 512.85 807.49 519.23 811.87 520.39C816.57 521.64 822.29 516.57 821.62 511.94C821.07 508.17 816.42 505.47 812.41 506Z" fill="#E1F6F9"/>
<path d="M719.23 -6.56995L722.7 -1.66995C723.499 -0.338975 724.004 1.14772 724.18 2.69006C724.96 8.07006 721.4 12.4401 720.9 13.0301C718.58 15.8001 715.81 16.8901 713.13 17.9501C708.99 19.5901 707.46 19.0101 703.62 20.5401C701.058 21.5706 698.69 23.0316 696.62 24.86L692.7 24.4101C694.29 21.0401 697.11 16.4901 702.17 13.9101C705.9 12.0001 708.17 12.5501 711.01 10.9901C714.31 9.17005 718 4.80005 719.23 -6.56995Z" fill="#6EB7D3"/>
<path d="M685 -9.75L692.82 -3.07998C694.411 -4.51181 696.305 -5.56484 698.36 -6.16C699.6 -6.5 706.18 -8.36 709.67 -4.16C711.95 -1.41 712.34 3.22001 710.28 5.60001C708.05 8.18001 704.97 5.77999 698.77 8.29999C695.3 9.70999 692.77 11.87 690.14 14.16C688.24 15.799 686.474 17.5881 684.86 19.51L692.73 24.39C693.492 22.7234 694.616 21.2476 696.02 20.07C698.68 17.89 701.49 17.65 703.85 17.21C705.55 16.88 714.24 15.21 718.29 10.21C721.72 5.99999 721.77 -0.539986 719.88 -5.29998C715.88 -15.38 703.51 -16.46 702.48 -16.54C692.71 -17.16 686.06 -10.85 685 -9.75Z" fill="#E1F6F9"/>
<path d="M683.5 26.8301L686.5 27.9501C687.271 28.1858 687.975 28.5989 688.557 29.1565C689.139 29.714 689.582 30.4003 689.85 31.1601C690.109 31.9391 690.165 32.7712 690.012 33.5778C689.86 34.3844 689.505 35.1389 688.98 35.7701C687.41 37.5801 684.82 37.3401 683.22 37.1901C682.057 37.0853 680.92 36.7808 679.86 36.2901C680.21 35.6201 680.55 34.9201 680.86 34.2001C681.954 31.8253 682.837 29.3592 683.5 26.8301Z" fill="#6EB7D3"/>
<path d="M683.8 26.92C683.117 26.6736 682.388 26.579 681.664 26.6429C680.941 26.7068 680.24 26.9276 679.61 27.29C677.11 28.98 676.71 33.71 679.1 35.77C681.67 37.98 686.79 36.54 687.77 33.43C688.57 30.91 686.47 27.81 683.8 26.92Z" fill="#E1F6F9"/>
<path d="M560.14 217.57L567.49 216.85C568.854 215.349 570.384 214.007 572.05 212.85C574.34 211.25 576.31 209.85 578.98 209.58C581.979 209.384 584.941 210.331 587.27 212.23C585.175 209.548 582.231 207.658 578.92 206.87C572.14 205.44 564.4 209.66 560.14 217.57Z" fill="#6EB7D3"/>
<path d="M597 202.8L603.81 208.59C605.453 210.218 606.728 212.178 607.55 214.34C610.66 221.81 607.13 229.42 606.63 230.46C604.3 235.3 600.7 237.9 597.23 240.46C591.86 244.34 589.44 244.07 584.46 247.68C581.129 250.11 578.243 253.097 575.93 256.51L570.11 257.3C571.11 251.86 573.56 244.3 579.9 238.67C584.58 234.55 588.01 234.51 591.57 231.2C595.72 227.31 599.45 219.66 597 202.8Z" fill="#6EB7D3"/>
<path d="M546.4 210.83L560.14 217.57C561.907 214.919 564.253 212.703 567 211.09C568.66 210.14 577.47 205.09 584.06 209.84C588.36 212.97 590.62 219.51 588.53 223.7C586.27 228.24 580.94 225.91 572.92 231.83C568.44 235.14 565.63 239.16 562.63 243.45C560.49 246.516 558.6 249.75 556.98 253.12L570.13 257.26C570.61 254.576 571.686 252.033 573.28 249.82C576.28 245.69 580.28 244.31 583.52 242.82C585.86 241.73 597.79 236.17 601.8 227.5C605.19 220.16 602.87 210.7 598.39 204.5C588.9 191.43 570.66 194.42 569.15 194.69C554.87 197.28 547.61 208.84 546.4 210.83Z" fill="#E1F6F9"/>
<path d="M557.77 264.12L562.52 264.63C563.716 264.692 564.882 265.033 565.923 265.625C566.965 266.217 567.854 267.044 568.52 268.04C569.182 269.073 569.57 270.258 569.647 271.483C569.724 272.708 569.488 273.932 568.96 275.04C567.35 278.22 563.53 278.83 561.17 279.2C559.452 279.472 557.701 279.451 555.99 279.14C556.25 278.05 556.49 276.91 556.7 275.74C557.395 271.905 557.753 268.017 557.77 264.12Z" fill="#6EB7D3"/>
<path d="M558.24 264.14C557.67 264.14 554.38 263.92 552.34 266.22C549.34 269.57 550.51 276.56 554.72 278.64C559.24 280.88 566.1 276.91 566.37 272.08C566.58 268.15 562.42 264.45 558.24 264.14Z" fill="#E1F6F9"/>
<path d="M431.45 230.28L433.8 225.76C433.434 224.405 433.226 223.013 433.18 221.61C432.961 219.837 433.209 218.038 433.9 216.39C434.911 214.582 436.569 213.225 438.54 212.59C436.205 212.792 434.007 213.783 432.31 215.4C429 218.78 428.48 224.85 431.45 230.28Z" fill="#217E9B"/>
<path d="M436.77 203.42L442.68 201.65C444.235 201.314 445.845 201.314 447.4 201.65C452.89 202.65 455.96 207.56 456.4 208.23C458.32 211.4 458.47 214.46 458.62 217.41C458.85 221.97 457.78 223.27 458 227.5C458.151 230.338 458.791 233.129 459.89 235.75L458.16 239.41C455.41 236.76 451.92 232.51 451.07 226.75C450.45 222.5 451.72 220.51 451.14 217.2C450.45 213.38 447.43 208.35 436.77 203.42Z" fill="#217E9B"/>
<path d="M422.39 235.69L431.45 230.28C430.584 228.262 430.184 226.074 430.28 223.88C430.35 222.56 430.72 215.56 435.97 213.55C439.4 212.24 443.97 213.39 445.66 216.17C447.43 219.17 444.09 221.39 444.49 228.25C444.72 232.09 445.99 235.25 447.34 238.57C448.31 240.957 449.467 243.264 450.8 245.47L458.14 239.42C456.77 238.135 455.704 236.56 455.02 234.81C453.77 231.5 454.47 228.68 454.82 226.25C455.06 224.49 456.33 215.5 452.82 209.93C449.82 205.21 443.51 203 438.27 203.27C427.15 203.84 422.02 215.51 421.61 216.48C417.74 225.7 421.69 234.24 422.39 235.69Z" fill="#7DC2D3"/>
<path d="M457.46 249.14L459.54 246.59C460.023 245.917 460.658 245.368 461.393 244.985C462.127 244.603 462.942 244.399 463.77 244.39C464.612 244.398 465.439 244.618 466.173 245.031C466.907 245.443 467.525 246.035 467.97 246.75C469.2 248.88 468.12 251.32 467.45 252.82C466.955 253.924 466.279 254.938 465.45 255.82C464.92 255.26 464.35 254.69 463.76 254.13C461.81 252.285 459.702 250.616 457.46 249.14Z" fill="#217E9B"/>
<path d="M457.65 248.88C457.19 249.464 456.862 250.142 456.689 250.865C456.516 251.589 456.503 252.341 456.65 253.07C457.47 256.07 461.94 258.01 464.73 256.36C467.73 254.59 468 249.14 465.31 247.17C463.1 245.56 459.39 246.58 457.65 248.88Z" fill="#7DC2D3"/>
<path d="M957.51 116.42L963.66 116.33C965.249 116.434 966.797 116.878 968.2 117.63C973.2 120.09 974.8 125.63 975.01 126.4C976.01 129.96 975.31 132.94 974.64 135.81C973.64 140.25 972.24 141.21 971.29 145.33C970.664 148.098 970.519 150.953 970.86 153.77L968.2 156.77C966.28 153.47 964.09 148.44 964.85 142.68C965.41 138.43 967.17 136.86 967.52 133.53C967.92 129.71 966.39 124.05 957.51 116.42Z" fill="#6EB7D3"/>
<path d="M934.9 143.47L945.07 140.75C944.789 138.577 945.004 136.368 945.7 134.29C946.13 133.05 948.39 126.42 953.98 125.93C957.62 125.6 961.75 127.93 962.56 131.09C963.44 134.46 959.63 135.67 958.15 142.37C957.32 146.11 957.68 149.46 958.07 153.04C958.345 155.598 958.826 158.13 959.51 160.61L968.2 156.81C967.238 155.201 966.647 153.397 966.47 151.53C966.17 148.01 967.61 145.53 968.6 143.26C969.32 141.63 972.99 133.35 971.15 127.04C969.59 121.71 964.15 117.86 959 116.68C948.16 114.2 940.06 124 939.4 124.82C933.16 132.62 934.63 141.89 934.9 143.47Z" fill="#E3F6FC"/>
<path d="M964.59 166.24C965.257 165.288 966.132 164.501 967.15 163.94C968.399 163.144 969.902 162.847 971.36 163.11C972.306 163.341 973.17 163.827 973.86 164.514C974.549 165.202 975.037 166.065 975.27 167.01C975.82 169.51 974.09 171.5 973.19 172.54C972.505 173.341 971.686 174.018 970.77 174.54C970.42 173.86 970.03 173.16 969.6 172.45C968.203 170.174 966.519 168.087 964.59 166.24Z" fill="#6EB7D3"/>
<path d="M965.15 165.75C964.546 166.185 964.044 166.745 963.678 167.392C963.312 168.04 963.091 168.759 963.03 169.5C963.03 172.59 966.76 175.68 969.89 174.86C973.24 173.98 975 168.86 972.95 166.19C971.29 164.06 967.45 164 965.15 165.75Z" fill="#E3F6FC"/>
<path d="M625.66 165.8C629.6 169.96 631.06 173.8 631.54 176.87C632.15 180.81 630.45 184.32 631.8 190.61C631.977 192.079 632.642 193.446 633.69 194.49C635.83 196.37 639.34 196.07 641.69 195C643.298 194.289 644.644 193.093 645.54 191.58C648.43 186.18 642.85 177.74 639.06 173.71C635.409 169.888 630.771 167.15 625.66 165.8Z" fill="#217E9B"/>
<path d="M621.74 164.35C625.68 168.51 627.14 172.35 627.61 175.42C628.56 181.53 625.61 184.6 627.87 189.17C629.35 192.17 632.75 195.17 636.19 194.73C638.75 194.37 640.71 192.12 641.59 190.13C644.83 182.83 636.09 173.3 635.11 172.26C631.468 168.441 626.841 165.704 621.74 164.35Z" fill="#9CD8E5"/>
<path d="M755.78 462.4C759.72 466.56 761.17 470.4 761.65 473.47C762.26 477.41 760.56 480.92 761.91 487.21C762.087 488.679 762.752 490.046 763.8 491.09C765.95 492.97 769.45 492.67 771.8 491.6C773.403 490.884 774.744 489.69 775.64 488.18C778.54 482.78 772.95 474.34 769.16 470.31C765.518 466.486 760.886 463.748 755.78 462.4Z" fill="#217E9B"/>
<path d="M751.85 461C755.79 465.16 757.25 469 757.72 472.08C758.67 478.19 755.72 481.25 757.99 485.82C759.46 488.82 762.87 491.82 766.3 491.38C768.86 491.02 770.82 488.77 771.7 486.78C774.94 479.48 766.2 469.95 765.23 468.91C761.582 465.094 756.952 462.357 751.85 461Z" fill="#9CD8E5"/>
<path d="M531.75 75.1901C527.81 79.3401 526.35 83.1901 525.88 86.2601C525.27 90.2001 526.97 93.7101 525.62 100C525.443 101.469 524.778 102.836 523.73 103.88C521.58 105.76 518.07 105.45 515.73 104.39C514.133 103.685 512.794 102.5 511.9 101C509 95.6101 514.59 87.1701 518.38 83.1301C522.019 79.3006 526.646 76.5526 531.75 75.1901Z" fill="#217E9B"/>
<path d="M535.68 73.74C531.73 77.9 530.28 81.74 529.8 84.81C528.86 90.92 531.8 93.99 529.54 98.55C528.07 101.55 524.66 104.55 521.23 104.11C518.66 103.75 516.71 101.51 515.82 99.52C512.59 92.21 521.32 82.69 522.3 81.65C525.944 77.8283 530.575 75.0904 535.68 73.74Z" fill="#9CD8E5"/>
<path d="M242.82 1.22998C246.76 5.38998 248.22 9.22996 248.7 12.3C249.31 16.24 247.61 19.76 248.96 26.05C249.14 27.5177 249.806 28.8832 250.85 29.93C252.99 31.81 256.5 31.5 258.85 30.43C260.458 29.7189 261.804 28.5232 262.7 27.01C265.6 21.62 260.01 13.18 256.22 9.13998C252.568 5.31843 247.931 2.58092 242.82 1.22998Z" fill="#217E9B"/>
<path d="M238.9 -0.209961C242.84 3.94004 244.3 7.79002 244.77 10.86C245.77 16.97 242.77 20.03 245.03 24.6C246.51 27.6 249.92 30.6 253.35 30.16C255.91 29.8 257.87 27.56 258.75 25.56C261.99 18.26 253.25 8.73003 252.27 7.69003C248.626 3.87521 244 1.1413 238.9 -0.209961Z" fill="#9CD8E5"/>
<path d="M876.73 134.32C881.47 139.32 883.21 143.92 883.73 147.6C884.47 152.33 882.43 156.55 884.05 164.09C884.261 165.854 885.061 167.496 886.32 168.75C888.89 171.01 893.1 170.64 895.9 169.36C897.827 168.503 899.439 167.067 900.51 165.25C903.99 158.78 897.28 148.65 892.74 143.81C888.378 139.235 882.838 135.951 876.73 134.32Z" fill="#AAD7E2"/>
<path d="M872 132.58C876.73 137.58 878.47 142.18 879 145.87C880.14 153.2 876.62 156.87 879.32 162.36C881.09 165.95 885.18 169.61 889.32 169.03C892.4 168.6 894.75 165.91 895.81 163.52C899.69 154.75 889.21 143.32 888.04 142.07C883.666 137.495 878.116 134.212 872 132.58Z" fill="#E4F3F9"/>
<path d="M527.47 16.52C532.2 21.52 533.95 26.12 534.47 29.81C535.2 34.54 533.16 38.75 534.78 46.3C534.996 48.0851 535.814 49.743 537.1 51C539.67 53.26 543.88 52.89 546.68 51.61C548.609 50.7561 550.221 49.3186 551.29 47.5C554.77 41.03 548.07 30.9 543.52 26.06C539.152 21.4616 533.597 18.16 527.47 16.52Z" fill="#AAD7E2"/>
<path d="M522.76 14.79C527.49 19.79 529.24 24.39 529.76 28.07C530.89 35.4 527.37 39.07 530.07 44.56C531.84 48.15 535.93 51.81 540.07 51.23C543.14 50.8 545.49 48.11 546.55 45.72C550.44 36.95 539.95 25.52 538.78 24.28C534.417 19.7009 528.872 16.4167 522.76 14.79Z" fill="#E4F3F9"/>
<path d="M654.6 112C650.66 116.16 649.2 120 648.73 123.07C648.12 127.01 649.82 130.53 648.46 136.81C648.29 138.284 647.624 139.656 646.57 140.7C644.43 142.58 640.92 142.27 638.57 141.2C636.966 140.487 635.623 139.292 634.73 137.78C631.83 132.39 637.41 123.95 641.2 119.91C644.854 116.091 649.491 113.354 654.6 112Z" fill="#AAD7E2"/>
<path d="M658.53 110.53C654.58 114.68 653.13 118.53 652.65 121.6C651.7 127.71 654.65 130.77 652.39 135.34C650.92 138.34 647.51 141.34 644.08 140.9C641.51 140.54 639.55 138.3 638.67 136.3C635.44 129 644.17 119.47 645.15 118.43C648.798 114.616 653.428 111.882 658.53 110.53Z" fill="#E4F3F9"/>
<path d="M705.08 1018.2C701.92 1025.65 698.763 1033.09 695.61 1040.54C693.601 1045.15 690.966 1049.47 687.78 1053.36C683.278 1058.86 677.765 1063.44 671.54 1066.86C669.93 1069.95 668.37 1073.86 669.94 1075.72C672.12 1078.27 679.17 1074.51 697.54 1066.36C719.71 1056.52 725.73 1054.75 727.27 1048.69C728.13 1045.3 726.65 1044.26 724.94 1032.53C723.94 1025.85 723.6 1020.32 723.43 1016.67L705.08 1018.2Z" fill="#F2BF91"/>
<path d="M705.08 1018.2C701.92 1025.65 698.763 1033.09 695.61 1040.54C693.601 1045.15 690.966 1049.47 687.78 1053.36C683.278 1058.86 677.765 1063.44 671.54 1066.86C669.93 1069.95 668.37 1073.86 669.94 1075.72C672.12 1078.27 679.17 1074.51 697.54 1066.36C719.71 1056.52 725.73 1054.75 727.27 1048.69C728.13 1045.3 726.65 1044.26 724.94 1032.53C723.94 1025.85 723.6 1020.32 723.43 1016.67L705.08 1018.2Z" fill="url(#paint0_linear)"/>
<path d="M622.16 947.51L603.05 962.63C593.375 970.111 581.48 974.148 569.25 974.1C566.34 976.1 563.06 978.76 563.55 981.15C564.14 984.07 570.73 985.29 592.23 986.38C603.64 986.96 614.23 987.24 623.78 987.33L631.17 973.19C633.77 967.19 636.367 961.19 638.96 955.19L622.16 947.51Z" fill="#F2BF91"/>
<path d="M770.46 635.38C775.631 645.611 776.804 657.401 773.75 668.45C779.1 671.308 785.121 672.669 791.18 672.39C807.11 671.53 816.42 659.06 817.78 657.17C809.689 652.907 803.089 646.279 798.86 638.17C795.616 631.812 793.949 624.768 794 617.63L770.46 635.38Z" fill="#F2BF91"/>
<path d="M795 580.59C788.83 577.45 781.77 580.35 767.92 586.06C756.92 590.6 751.21 592.94 748.17 599.16C744.04 607.64 747.05 616.65 748.85 622.03C749.944 625.21 751.393 628.256 753.17 631.11C757.31 638.11 763.88 649.54 775.24 652.11C778.346 652.958 781.627 652.917 784.71 651.99C787.2 651.17 791.03 649.17 795.96 640.75C798.96 635.61 803.37 627.91 804.42 615.96C804.91 610.51 807 586.72 795 580.59Z" fill="#FBD3AA"/>
<path d="M723.27 723.83C718.91 730.09 718.78 736.73 718.67 742.39C718.54 749.29 718.28 762.76 727.02 768.17C734.22 772.63 744.57 769.8 750.72 765.34C766.8 753.67 767.72 721.09 754.55 713.44C745.92 708.43 730.38 713.62 723.27 723.83Z" fill="#F2BF91"/>
<path d="M622.16 947.51L603.05 962.63C593.375 970.111 581.48 974.148 569.25 974.1C566.34 976.1 563.06 978.76 563.55 981.15C564.14 984.07 570.73 985.29 592.23 986.38C603.64 986.96 614.23 987.24 623.78 987.33L631.17 973.19C633.77 967.19 636.367 961.19 638.96 955.19L622.16 947.51Z" fill="url(#paint1_linear)"/>
<path d="M797.19 638.11L780.37 646.77L772.85 649.25C771.42 651.986 770.56 654.983 770.32 658.06C770.01 662.458 770.961 666.853 773.06 670.73C779.99 676.21 786.22 677.98 788.44 675.86C788.8 675.52 790.17 674.01 788.86 669.24C802.18 673.51 813.15 668.78 815.04 662.5C816.61 657.28 811.77 651.5 810.71 650.27C806.237 646.21 801.73 642.157 797.19 638.11Z" fill="url(#paint2_linear)"/>
<path d="M814.1 895.46C797.84 900.16 787.82 898.04 733.72 894.94L723.84 894.39C727.158 902.435 729.485 910.853 730.77 919.46C731.412 923.813 731.79 928.201 731.9 932.6C732.57 956.98 726.51 972.17 725.9 993.17C725.604 1004.07 726.761 1014.96 729.34 1025.55C718.224 1029.11 706.54 1030.57 694.89 1029.84C696.186 988.34 688.664 947.038 672.82 908.66C684.04 886.89 694.71 869.34 703 856.53C727.74 818.29 739 810.29 750.74 808.24C758.07 806.95 764.56 812.31 770.5 808.24C776.69 803.99 775.11 796.49 779.38 789.98C783.31 783.98 792.92 777.84 819.1 779.59L836.55 778.69C837.883 788.13 839.18 797.573 840.44 807.02C843.84 813.439 846.401 820.268 848.06 827.34C849.61 834 856.48 863.49 840.7 881.67C833.58 889.86 824.78 892.37 814.1 895.46Z" fill="#6397B7"/>
<path d="M771.83 666.47C777.38 668.382 783.345 668.748 789.086 667.527C794.828 666.306 800.129 663.545 804.42 659.54C809.197 656.985 814.429 655.391 819.82 654.85C823.454 654.488 827.121 654.62 830.72 655.24C838.72 656.64 844.21 660.17 848.92 663.24C852.484 665.53 855.831 668.141 858.92 671.04C855.756 702.994 844.982 733.725 827.5 760.66C834.42 785.37 837.32 792.06 838.5 791.82C839.68 791.58 839.34 783.82 837.89 783.44C836.44 783.06 834.68 793.9 829.23 795.32C824.99 796.42 822.05 789.74 817.66 791.06C813.99 792.16 812.57 797.88 808.66 798.37C807.804 798.479 806.942 798.529 806.08 798.52C803.91 798.52 802.88 797.95 799.93 798.43C791.74 799.77 785.99 805.96 782.43 810.94C773.3 809.87 761.78 807.13 758.33 799.16C754.16 789.54 765.22 780.37 766.85 764.35C767.85 754.95 765.71 741.35 751.35 723.54C747.93 728.66 744.61 730.18 742.25 730.65C737.34 731.65 734.43 728.41 728.16 728.13C723.967 728.029 719.83 729.106 716.22 731.24C719.869 726.25 722.823 720.786 725 715C730.69 700 728 691.39 734.51 681.67C736.79 678.25 741.08 673.67 749.88 670.36L771.83 666.47Z" fill="#DDEDF2"/>
<path d="M749.62 711.18C747.461 714.752 745.882 718.644 744.94 722.71C744.025 726.394 743.879 730.227 744.51 733.97C745.89 741.37 750.82 747.97 750.82 747.97C752.165 749.17 753.342 750.546 754.32 752.06C756.616 755.851 757.782 760.219 757.68 764.65C757.92 776.65 754.02 779.96 753.62 792.51C753.37 800.3 753.24 804.32 755.87 806.2C762.28 810.77 778.73 797.9 783.78 803.26C784.84 804.38 785.31 806.2 786.78 806.34C788.7 806.51 789.01 802.92 791.84 801.47C799.42 797.6 804.62 802.4 811.6 797.77C815.35 795.29 815.6 792.77 818.93 792.26C822.76 791.71 827.76 792.35 829.15 795.26C830.95 799.04 825.36 803.57 827.02 805.92C828.83 808.49 836.86 808.92 840.26 805.19C845.66 799.19 835.45 786.32 830.5 765.82C827.332 752.347 826.89 738.376 829.2 724.73C848.34 698.32 851.33 671.6 840.5 661.07C834.57 655.3 823.02 652.99 813.82 654.79C801.13 657.29 795.16 667.17 780.06 667.33C777.289 667.352 774.524 667.057 771.82 666.45C763.57 683 756.44 697.56 749.62 711.18Z" fill="#DDEDF2"/>
<path d="M794.76 581C788.64 577.83 781.66 580.69 767.99 586.31C757.09 590.79 751.49 593.09 748.53 599.31C744.53 607.75 747.53 616.77 749.33 622.15C750.424 625.333 751.873 628.382 753.65 631.24C757.78 638.3 764.35 649.71 775.65 652.38C778.717 653.245 781.966 653.22 785.02 652.31C787.49 651.51 791.27 649.53 796.1 641.16C799.1 636.04 803.36 628.37 804.33 616.45C804.73 611 806.69 587.23 794.76 581Z" fill="url(#paint3_linear)"/>
<path d="M771 610C772.565 611.524 773.615 613.5 774 615.65C774.48 618.76 773 620.33 774.13 622.65C774.88 624.17 776.62 625.73 778.37 625.48C778.986 625.344 779.559 625.06 780.04 624.652C780.521 624.245 780.895 623.725 781.13 623.14C782.78 619.41 778.33 614.55 777.83 614.02C775.967 612.077 773.603 610.686 771 610Z" fill="#EEFCFF"/>
<path d="M704.89 811.29C701.17 810.75 694.63 809.7 688.34 811.62C672.79 816.35 670.66 833.47 651.94 871.09C643.186 888.915 633.094 906.05 621.75 922.35C615.21 931.65 609.37 939.01 605.33 943.9C614.13 956.351 625.701 966.59 639.13 973.81C645 964.14 650.28 956.29 654.26 950.59C662.63 938.59 667.65 931.4 675.78 922.79C683.91 914.18 685.07 914.79 691.3 907.56C697.495 900.324 702.75 892.334 706.94 883.78C716.64 862.34 709.07 847.78 720.07 837.65C722.086 835.874 724.25 834.275 726.54 832.87C733.39 828.72 739.54 827.59 744.24 826.73C745.664 826.414 747.122 826.273 748.58 826.31C752.21 826.5 754.21 828.16 760.73 827.62C768.082 827.079 775.078 824.242 780.73 819.51C786.274 814.646 790.109 808.129 791.67 800.92C799.67 788.79 800.91 785.31 800.17 784.69C798.66 783.45 789.91 789.07 776.83 797.51C772.6 800.24 767.25 803.79 764.37 801.91C762.37 800.59 763.15 797.67 761.53 797.1C758.9 796.18 752.53 802.39 750.24 810.18C748.83 815.02 749.89 818.81 747.24 820.56C745.34 821.81 742.92 820.79 741.53 820.79C726.19 820.79 719.18 813.36 704.89 811.29Z" fill="#98C7D8"/>
<path d="M716.13 731.2C721.97 727.878 727.209 723.599 731.63 718.54C738.07 711.1 739.81 705.43 747.35 699.12C750.482 696.516 754.023 694.448 757.83 693C751.267 704.502 746.633 717 744.11 730C741.786 730.695 739.375 731.055 736.95 731.07C733.05 731.07 731.01 730.19 727.95 729.8C723.955 729.342 719.908 729.821 716.13 731.2Z" fill="#CAE9EF"/>
<path d="M704.89 811.27C701.17 810.73 694.63 809.69 688.34 811.6C672.79 816.33 670.66 833.45 651.94 871.07C643.188 888.896 633.096 906.032 621.75 922.33C615.21 931.63 609.37 938.99 605.33 943.88C614.13 956.331 625.701 966.57 639.13 973.79C645 964.12 650.28 956.27 654.26 950.57C662.63 938.57 667.65 931.38 675.78 922.77C683.91 914.16 685.07 914.77 691.3 907.54C697.495 900.304 702.75 892.314 706.94 883.76C716.64 862.32 709.07 847.76 720.07 837.63C722.086 835.854 724.25 834.255 726.54 832.85C733.39 828.7 739.54 827.57 744.24 826.71C745.665 826.399 747.122 826.258 748.58 826.29C752.21 826.48 754.21 828.14 760.73 827.6C768.082 827.059 775.078 824.222 780.73 819.49C786.274 814.626 790.109 808.109 791.67 800.9C799.67 788.78 800.91 785.29 800.17 784.67C798.59 783.37 791.57 791.89 776.83 797.49C773.31 798.83 764.37 801.89 764.37 801.89C764.37 801.89 753.76 803.82 750.24 810.16C747.81 814.52 750.1 818.65 747.24 820.54C745.34 821.79 742.92 820.77 741.53 820.77C726.19 820.77 719.18 813.34 704.89 811.27Z" fill="url(#paint4_linear)"/>
<path d="M683 728.09C680.19 728.29 679.38 724.83 674.2 723.8C672.58 723.48 670.66 723.1 669.04 724.15C666.27 725.93 665.73 730.94 666.85 734.64C667.97 738.34 670.07 738.54 670.43 741.58C670.85 745.2 667.98 745.75 667.78 749.58C667.48 755.18 673.5 757.66 672.53 762.45C672.06 764.78 670.46 765.05 669.93 768.45C669.613 770.196 669.719 771.993 670.24 773.69C671.77 778.25 675.83 777.88 678.24 782.62C678.52 783.17 680.42 787.1 679.11 790.45C678.11 793.02 676.11 792.87 675.05 795.62C673.99 798.37 674.91 801.46 675.25 802.54C676.9 807.72 680.68 808.47 680.6 811.63C680.54 814.11 678.19 814.12 677.07 817.47C675.76 821.37 677.07 827.01 679.69 828.24C682.6 829.6 685.15 824.63 689.41 825.92C692.14 826.74 691.92 829.03 694.66 829.92C698.85 831.33 700.88 826.51 705.66 827.36C709.66 828.06 709.95 831.61 713.54 831.82C717.54 832.06 718.19 827.63 722.48 827.38C727.07 827.11 728.31 832.07 733.25 832.04C737.15 832.04 737.25 828.93 742.56 827.97C747.26 827.11 749.25 829.18 751.27 827.71C753.95 825.78 752.87 820.41 752.46 815.31C750.9 795.56 760.41 791.59 756.1 778.5C754.04 772.28 751.03 770.57 751.1 764.69C751.21 759.14 753.99 755.78 752.01 752.46C750.45 749.84 748.01 750.76 746.01 747.66C743.84 744.31 744.57 740 744.8 738.66C745.51 734.47 747.31 734.22 747.29 731.55C747.29 726.55 740.97 720.55 736.59 721.32C732.79 722.01 732.93 727.32 729.26 727.89C725.01 728.51 723.14 721.58 717.73 721.17C712.32 720.76 710.6 727.35 705.83 726.17C702.83 725.41 702.55 722.53 697.83 720.8C696.03 719.963 694.021 719.681 692.06 719.99C686.91 721.17 686.86 727.83 683 728.09Z" fill="#F7D063"/>
<path d="M683.41 740.33C692.41 739.91 701.9 739.75 711.92 739.96C719.8 740.12 727.35 740.5 734.54 741.04C737.35 753.57 739.83 767.29 741.65 782.11C742.88 792.02 743.65 801.5 744.2 810.5C727.441 815.259 709.803 816.04 692.69 812.78C689.603 788.633 686.51 764.483 683.41 740.33Z" fill="#D6A221"/>
<path opacity="0.25" d="M709 772.4L716 770.83L717.35 771.7C722.11 788.12 726.867 804.543 731.62 820.97L706.62 819.67C707.447 803.89 708.24 788.133 709 772.4Z" fill="#2B1F03"/>
<path d="M707.66 771.53L716.06 770.83C720.82 787.25 725.577 803.673 730.33 820.1L705.24 821.46C706.053 804.82 706.86 788.177 707.66 771.53Z" fill="#C69320"/>
<path opacity="0.07" d="M764.92 801.59C763.97 798.59 759.12 796.52 755.39 796.95C751.66 797.38 751.39 799.95 746.57 802.79C742.19 805.33 737.41 805.95 727.86 807.2C722.73 807.86 721.39 807.71 720.71 808.86C718.78 812.13 724.63 821.53 732.15 824.12C746.5 829.06 767.35 809.3 764.92 801.59Z" fill="#2B1F03"/>
<path d="M775.86 555.91C767.52 552 756.39 548.82 745 552C744.31 552.2 743.64 552.41 743 552.64C738.07 554.32 727.8 558.89 722.23 570.23C719.475 575.753 718.133 581.874 718.325 588.044C718.517 594.213 720.237 600.239 723.33 605.58C731.84 619.9 747 622.65 749.19 623C746.541 617.578 745.623 611.472 746.56 605.51C747.06 602.57 748.04 596.93 752.48 593.75C754.84 592.06 756.93 592.27 759.8 591.37C765.46 589.577 770.844 587.009 775.8 583.74C777.037 586.7 778.687 589.471 780.7 591.97C782.411 594.08 784.376 595.971 786.55 597.6C786.286 595.35 786.564 593.07 787.36 590.95C787.96 589.39 789.07 586.5 791.24 586.28C791.818 586.279 792.391 586.395 792.923 586.62C793.456 586.845 793.938 587.175 794.34 587.59C798.4 591.17 796.65 599.45 796.46 600.3C800.452 605.612 802.767 611.994 803.11 618.63C803.21 621.317 802.965 624.006 802.38 626.63L797.16 638.08C799.75 638.38 811.69 639.47 820.05 631.54C829.93 622.16 826.91 606.67 825.33 598.4C822.33 582.51 813.05 571.91 807.93 566.89C812.202 564.997 815.806 561.861 818.27 557.89C822.98 550.04 823.14 538.32 816.21 531.14C808.15 522.8 793.34 524.36 784.61 531.61C774 540.41 775.71 554.86 775.86 555.91Z" fill="#042F4C"/>
<path d="M626.37 986.27C627.82 989.48 623.26 991.27 617.86 1004.79C617.009 1007.39 615.576 1009.77 613.67 1011.73C611.472 1013.9 608.694 1015.39 605.67 1016.01C602.75 1016.48 599.48 1015.54 588.87 1007.33C587.14 1005.99 585.87 1004.97 584.87 1004.11C581.57 1001.36 579.26 999.4 578.87 999.03C571.36 992.58 548.8 985.56 544.21 981.11C542.819 979.74 541.52 978.28 540.32 976.74C539.66 975.87 539.15 975.16 539.03 974.95C536.21 969.89 536.67 961.47 542.03 957.08C547.39 952.69 554.86 954.62 555.86 954.91C556.567 955.12 557.256 955.388 557.92 955.71C560.11 956.88 560.87 958.64 566.37 961.11C570.015 962.666 573.847 963.742 577.77 964.31C587.84 965.71 591.58 963.17 595.07 966.31C596.15 967.31 595.65 967.39 597.94 970.56C599.655 973.593 602.005 976.22 604.83 978.26C611.49 983.08 624.07 981.2 626.37 986.27Z" fill="#E2F4F7"/>
<path d="M774.75 563.16C774.898 558.486 773.76 553.862 771.46 549.79C766.37 540.92 757.46 538.3 755.57 537.79C756.51 537.64 765.05 536.45 771.26 542.63C773.828 545.311 775.534 548.7 776.156 552.36C776.778 556.019 776.288 559.781 774.75 563.16Z" fill="#042F4C"/>
<path d="M798.88 565.33C803.501 566.05 808.231 565.482 812.55 563.69C818.849 560.9 823.818 555.773 826.41 549.39C826.41 550.33 826.59 558.96 819.69 564.39C816.713 566.611 813.139 567.887 809.429 568.055C805.719 568.223 802.045 567.273 798.88 565.33Z" fill="#042F4C"/>
<path d="M796.77 575.22C800.56 572.485 805.03 570.845 809.69 570.48C819.89 569.73 827.02 575.62 828.53 576.93C828.13 576.08 824.34 568.32 815.74 566.63C812.081 565.999 808.318 566.481 804.936 568.012C801.554 569.544 798.709 572.054 796.77 575.22Z" fill="#042F4C"/>
<path d="M537.24 968C539.115 971.643 541.647 974.908 544.71 977.63C551.51 983.63 555.87 982.19 566.83 987.23C578.92 992.8 589.49 1001.84 589.94 1002.23C594.64 1006.3 597.16 1009.29 602.2 1010.43C607.69 1011.67 612.81 1009.95 616.27 1008.3C615.503 1010.85 613.891 1013.07 611.697 1014.59C609.504 1016.11 606.861 1016.83 604.2 1016.65C598.34 1016.6 594.91 1013.09 584.66 1005.17C577.76 999.83 574.31 997.17 571.48 995.52C566.22 992.46 564.76 992.52 552.34 986.52C545.09 983.01 542.58 981.52 540.48 978.52C538.397 975.404 537.271 971.748 537.24 968Z" fill="#BFEAEF"/>
<path d="M566.28 961.11C568.001 964.1 570.472 966.589 573.45 968.33C577.17 970.47 580.51 970.7 584 970.94C589.57 971.32 597.13 970.58 597.4 968.64C597.57 967.44 594.95 966.13 594.28 965.8C592.279 964.877 590.077 964.478 587.88 964.64C583.667 964.544 579.466 964.146 575.31 963.45C572.231 962.966 569.207 962.182 566.28 961.11Z" fill="#BFEAEF"/>
<path d="M731.12 1044.33C734.12 1046.18 731.33 1050.19 734.43 1064.44C735.172 1067.07 735.308 1069.84 734.83 1072.53C734.211 1075.55 732.728 1078.33 730.56 1080.53C728.4 1082.53 725.17 1083.6 711.78 1082.72C709.6 1082.58 707.99 1082.44 706.66 1082.31C702.38 1081.87 699.36 1081.53 698.8 1081.47C688.97 1080.32 666.34 1087.12 660.05 1086C658.131 1085.64 656.237 1085.15 654.38 1084.55C653.38 1084.2 652.52 1083.89 652.31 1083.78C647.15 1081.16 642.82 1073.93 644.8 1067.29C646.78 1060.65 654.06 1058.08 655.06 1057.76C655.762 1057.54 656.481 1057.37 657.21 1057.26C659.68 1057.02 661.29 1058.05 667.21 1057.02C671.101 1056.27 674.879 1055.02 678.45 1053.3C687.58 1048.82 689.26 1044.64 693.94 1045.3C695.38 1045.51 695.02 1045.88 698.69 1047.22C701.803 1048.77 705.214 1049.63 708.69 1049.75C717 1050 726.38 1041.41 731.12 1044.33Z" fill="#E2F4F7"/>
<path d="M647 1079C650.594 1080.97 654.519 1082.26 658.58 1082.8C667.58 1083.95 670.39 1080.34 682.29 1078.4C695.43 1076.25 709.29 1077.84 709.84 1077.91C716.01 1078.65 719.77 1079.72 724.58 1077.85C729.84 1075.85 733.11 1071.52 735.06 1068.21C735.797 1070.75 735.706 1073.45 734.8 1075.93C733.791 1078.42 732.01 1080.52 729.72 1081.93C724.83 1085.16 720.03 1084.17 707.11 1083.33C698.4 1082.77 694.04 1082.49 690.78 1082.71C684.71 1083.11 683.53 1083.98 669.88 1085.94C661.88 1087.08 658.99 1087.26 655.57 1085.94C652.1 1084.51 649.122 1082.1 647 1079Z" fill="#BFEAEF"/>
<path d="M667.24 1057.07C670.342 1058.6 673.789 1059.29 677.24 1059.07C681.52 1058.76 684.42 1057.07 687.45 1055.33C692.27 1052.54 698.13 1047.69 697.27 1045.93C696.74 1044.85 693.83 1045.22 693.09 1045.32C690.902 1045.67 688.837 1046.57 687.09 1047.93C683.54 1050.19 679.834 1052.2 676 1053.93C673.188 1055.26 670.254 1056.31 667.24 1057.07Z" fill="#BFEAEF"/>
<path d="M814.1 895.46C797.84 900.16 787.82 898.04 733.72 894.94L723.84 894.39C727.158 902.435 729.485 910.853 730.77 919.46C731.412 923.813 731.79 928.201 731.9 932.6C732.57 956.98 726.51 972.17 725.9 993.17C725.604 1004.07 726.761 1014.96 729.34 1025.55C718.224 1029.11 706.54 1030.57 694.89 1029.84C696.016 993.968 690.542 958.194 678.74 924.3C676.47 917.74 674.34 912.37 672.82 908.66C676.52 901.47 681.96 891.26 689.01 879.23C694.12 870.52 698.86 862.93 703.01 856.53C727.75 818.29 739.01 810.29 750.75 808.24C758.08 806.95 764.57 812.31 770.51 808.24C776.7 803.99 775.12 796.49 779.39 789.98C783.32 783.98 792.93 777.84 819.11 779.59L836.56 778.69C837.893 788.13 839.19 797.573 840.45 807.02C843.85 813.439 846.411 820.268 848.07 827.34C849.62 834 856.49 863.49 840.71 881.67C833.58 889.86 824.78 892.37 814.1 895.46Z" fill="url(#paint5_linear)"/>
<path d="M829.53 690.24C828.475 698.155 825.533 705.701 820.95 712.24C814.33 721.46 808.01 722.87 803.65 731.52C802.753 733.216 802.126 735.041 801.79 736.93C801.078 741.134 800.79 745.399 800.93 749.66C801.02 752.66 801.29 754.75 801.32 755.03C802.73 768.34 759.74 798.03 763.64 811.46C764.36 813.93 767 817 775.92 819.04C777.826 819.58 779.79 819.885 781.77 819.95C784.66 820.02 786.56 819.28 788.89 818.62C795.76 816.69 799.19 815.72 801.7 816.54C806.43 818.09 805.24 823.28 809.98 826.08C816.13 829.71 821.37 822.9 828.32 825.34C836.41 828.19 834.62 839.27 843.32 846.25C847.21 849.36 853.92 852.25 866.18 850.53C863.44 843.414 861.103 836.149 859.18 828.77C856.444 818.499 854.554 808.02 853.53 797.44C851.96 780.99 853.81 776.89 850.53 765.24C849.003 759.958 846.928 754.851 844.34 750C839 739.37 832.77 721.54 829.53 690.24Z" fill="#CAE9EF"/>
<path d="M765.31 798.24C763.036 796.528 760.232 795.672 757.39 795.82C751.39 796.42 750.27 802.94 743.69 806.82C733.01 813.12 724.05 807.71 721.62 812.07C718.92 816.9 726.27 829.2 737.24 832.88C741.269 834.171 745.57 834.365 749.699 833.44C753.828 832.516 757.636 830.507 760.73 827.62C763.693 824.768 765.855 821.189 767 817.24C770.77 817.08 776.17 816.8 782.66 816.3C787.93 815.9 797.5 815.08 809.91 813.3C829.91 810.45 833.06 808.6 834.97 807.3C840.4 803.55 842.83 799.01 846.61 791.96C852.12 781.7 852.45 775.96 858.86 754.73C862.56 742.47 862.65 744.01 863.91 738.88C867.395 724.599 868.299 709.81 866.58 695.21L837.42 690.32C825.193 718.49 818.951 748.892 819.09 779.6L765.31 798.24Z" fill="#F2BF91"/>
<path d="M765.19 798.24C762.912 796.529 760.105 795.672 757.26 795.82C751.26 796.42 750.15 802.94 743.57 806.82C732.89 813.12 723.93 807.71 721.5 812.07C718.8 816.9 726.15 829.2 737.12 832.88C741.149 834.17 745.45 834.363 749.579 833.439C753.708 832.514 757.515 830.506 760.61 827.62C763.574 824.771 765.733 821.191 766.87 817.24C770.65 817.08 776.05 816.8 782.54 816.3C787.81 815.9 797.38 815.08 809.79 813.3C829.79 810.45 832.94 808.6 834.84 807.3C840.28 803.55 842.71 799.01 846.49 791.96C852 781.7 852.33 775.96 858.74 754.73C862.44 742.47 862.53 744.01 863.74 738.88C867.219 724.598 868.123 709.81 866.41 695.21L837.24 690.32C825.049 718.494 818.838 748.892 819 779.59L765.19 798.24Z" fill="url(#paint6_linear)"/>
<path d="M823.72 680.05C820.03 687.25 823.91 692.92 824.23 708.23C824.416 717.475 823.226 726.695 820.7 735.59C827.666 735.615 834.577 734.361 841.09 731.89C845.22 730.28 847.54 728.83 850.8 729.57C855.38 730.57 856.1 735.09 861.17 739.83C864.976 743.282 869.609 745.693 874.62 746.83C877.43 739.83 882.28 724.83 878.69 706.83C877.29 699.83 872.05 673.47 853.18 668.74C842.24 666 828.3 671.1 823.72 680.05Z" fill="#E1F4F9"/>
<defs>
<linearGradient id="paint0_linear" x1="686.1" y1="1057.72" x2="732.31" y2="1022.28" gradientUnits="userSpaceOnUse">
<stop stop-color="#F2BF91" stop-opacity="0"/>
<stop offset="0.13" stop-color="#F3B988" stop-opacity="0.11"/>
<stop offset="0.42" stop-color="#F7A871" stop-opacity="0.39"/>
<stop offset="0.84" stop-color="#FD8E4C" stop-opacity="0.84"/>
<stop offset="0.98" stop-color="#FF853F"/>
</linearGradient>
<linearGradient id="paint1_linear" x1="58106.3" y1="52287" x2="60056.8" y2="48945.4" gradientUnits="userSpaceOnUse">
<stop stop-color="#F2BF91" stop-opacity="0"/>
<stop offset="0.13" stop-color="#F3B988" stop-opacity="0.11"/>
<stop offset="0.42" stop-color="#F7A871" stop-opacity="0.39"/>
<stop offset="0.84" stop-color="#FD8E4C" stop-opacity="0.84"/>
<stop offset="0.98" stop-color="#FF853F"/>
</linearGradient>
<linearGradient id="paint2_linear" x1="784.48" y1="668.873" x2="815.441" y2="627.64" gradientUnits="userSpaceOnUse">
<stop stop-color="#F2BF91" stop-opacity="0"/>
<stop offset="0.98" stop-color="#FF853F"/>
</linearGradient>
<linearGradient id="paint3_linear" x1="757.344" y1="632.184" x2="797.872" y2="590.048" gradientUnits="userSpaceOnUse">
<stop stop-color="#F2BF91" stop-opacity="0"/>
<stop offset="0.02" stop-color="#F3BF91" stop-opacity="0.06"/>
<stop offset="0.09" stop-color="#F5C092" stop-opacity="0.26"/>
<stop offset="0.17" stop-color="#F8C192" stop-opacity="0.43"/>
<stop offset="0.25" stop-color="#FAC293" stop-opacity="0.59"/>
<stop offset="0.33" stop-color="#FBC393" stop-opacity="0.72"/>
<stop offset="0.42" stop-color="#FDC393" stop-opacity="0.82"/>
<stop offset="0.52" stop-color="#FEC394" stop-opacity="0.9"/>
<stop offset="0.63" stop-color="#FEC494" stop-opacity="0.96"/>
<stop offset="0.77" stop-color="#FFC494" stop-opacity="0.99"/>
<stop offset="0.98" stop-color="#FFC494"/>
</linearGradient>
<linearGradient id="paint4_linear" x1="654.43" y1="813.51" x2="787.92" y2="955.68" gradientUnits="userSpaceOnUse">
<stop stop-color="#98C7D8" stop-opacity="0"/>
<stop offset="0.23" stop-color="#7DAEC5" stop-opacity="0.19"/>
<stop offset="0.7" stop-color="#366F93" stop-opacity="0.66"/>
<stop offset="1" stop-color="#054270"/>
</linearGradient>
<linearGradient id="paint5_linear" x1="711.58" y1="855.27" x2="843.6" y2="974.76" gradientUnits="userSpaceOnUse">
<stop stop-color="#98C7D8" stop-opacity="0"/>
<stop offset="0.04" stop-color="#8EC3D6" stop-opacity="0.07"/>
<stop offset="0.22" stop-color="#63B2CE" stop-opacity="0.35"/>
<stop offset="0.4" stop-color="#40A4C8" stop-opacity="0.58"/>
<stop offset="0.57" stop-color="#2498C3" stop-opacity="0.76"/>
<stop offset="0.73" stop-color="#1090BF" stop-opacity="0.89"/>
<stop offset="0.88" stop-color="#048CBD" stop-opacity="0.97"/>
<stop offset="1" stop-color="#008ABC"/>
</linearGradient>
<linearGradient id="paint6_linear" x1="783.78" y1="788.23" x2="900.66" y2="700.14" gradientUnits="userSpaceOnUse">
<stop stop-color="#F2BF91" stop-opacity="0"/>
<stop offset="0.32" stop-color="#F6AC76" stop-opacity="0.33"/>
<stop offset="0.98" stop-color="#FF853F"/>
</linearGradient>
</defs>
</svg>
