<svg width="184" height="46" viewBox="0 0 184 46" fill="none" xmlns="http://www.w3.org/2000/svg">
<path d="M13.3 38.72C18.7 38.72 20.82 36.66 20.82 33.45C20.82 24.54 0.639982 29.33 0.639982 13.81C0.639982 5.15 6.33998 0.610004 15.64 0.610004C19.3685 0.515777 23.0528 1.43511 26.3 3.27C27.7194 5.81312 28.3135 8.73449 28 11.63C24.491 9.48383 20.4726 8.31352 16.36 8.24001C11.88 8.24001 9.87998 9.88 9.87998 12.66C9.87998 21.03 29.94 16.6 29.94 32.3C29.94 42.96 22.6 46.47 13.46 46.47C9.31216 46.5463 5.19727 45.7206 1.39998 44.05C-0.0355378 41.3577 -0.608101 38.2889 -0.240019 35.26C3.93525 37.4703 8.57619 38.6562 13.3 38.72V38.72Z" fill="#042F4C"/>
<path d="M43.6 32.84C43.97 37.08 47 39.14 53 39.14C56.2401 39.1724 59.4536 38.5535 62.45 37.32C62.5668 39.7907 61.7933 42.2213 60.27 44.17C57.3022 45.6612 54.0098 46.3898 50.69 46.29C40.09 46.29 34.45 40.17 34.45 30.36C34.45 20.24 40.51 13.69 50.03 13.69C58.87 13.69 62.93 19.15 62.93 27.14C62.9259 29.0758 62.6188 30.9991 62.02 32.84H43.6ZM54.69 26.48C55.18 23.33 54.03 20.24 49.69 20.24C45.94 20.24 43.63 22.66 43.39 26.48H54.69Z" fill="#042F4C"/>
<path d="M87.66 14.9C88.0743 16.1084 88.2575 17.3839 88.2 18.66C88.2584 19.9362 88.0752 21.2119 87.66 22.42H79.6V33.81C79.6 36.72 80.45 38.23 83.72 38.23C85.6823 38.2792 87.6102 37.7088 89.2299 36.6C89.4545 39.2981 88.7984 41.9963 87.36 44.29C85.3422 45.7045 82.9113 46.4081 80.45 46.29C73 46.29 70.81 41.81 70.81 35.14V22.42H66.15C66.1114 19.8619 66.5209 17.3168 67.36 14.9H70.81V8.36C73.4407 6.71205 76.4965 5.87074 79.6 5.94V14.94L87.66 14.9Z" fill="#042F4C"/>
<path d="M112.38 14.9C112.803 16.1063 112.99 17.383 112.93 18.66C112.991 19.9371 112.804 21.2139 112.38 22.42H104.32V33.81C104.32 36.72 105.17 38.23 108.44 38.23C110.419 38.2863 112.365 37.7158 114 36.6C114.216 39.2988 113.557 41.9955 112.12 44.29C110.102 45.7045 107.671 46.4081 105.21 46.29C97.76 46.29 95.58 41.81 95.58 35.14V22.42H90.91C90.8765 19.8623 91.2858 17.3181 92.12 14.9H95.58V8.36C98.2064 6.71068 101.259 5.86918 104.36 5.94V14.94L112.38 14.9Z" fill="#042F4C"/>
<path d="M126.87 46.29C120.81 46.29 118.99 42.35 118.99 36.96V1.64C121.05 0.480003 123.9 -0.119995 127.78 -0.119995V35.51C127.78 37.81 128.56 38.42 130.32 38.42C131.637 38.4384 132.927 38.0546 134.02 37.32C134.213 39.959 133.622 42.5962 132.32 44.9C130.667 45.8585 128.78 46.3397 126.87 46.29V46.29Z" fill="#042F4C"/>
<path d="M157.59 1.64C159.65 0.480003 162.5 -0.119995 166.37 -0.119995V44.29C164.334 45.2756 162.091 45.7558 159.83 45.69L158.68 41.51H158.19C156.62 44.66 153.11 46.29 149.05 46.29C140.87 46.29 136.99 40.17 136.99 31.14C136.99 20.06 142.8 13.69 151.99 13.69C153.927 13.6316 155.854 14.0039 157.63 14.78L157.59 1.64ZM157.71 22.12C156.517 21.5591 155.208 21.2884 153.89 21.33C148.44 21.33 146.02 25.02 146.02 30.54C146.02 35.87 148.2 38.35 152.2 38.35C154.256 38.3392 156.229 37.5371 157.71 36.11V22.12Z" fill="#042F4C"/>
<path d="M184.31 40.72C184.31 44.23 182.19 46.17 179.1 46.17C175.71 46.17 173.83 44.29 173.83 40.78C173.8 40.0826 173.916 39.3865 174.171 38.7367C174.425 38.0868 174.814 37.4975 175.31 37.0067C175.807 36.5159 176.4 36.1346 177.053 35.8871C177.706 35.6397 178.403 35.5316 179.1 35.57C182.19 35.57 184.31 37.45 184.31 40.72Z" fill="#042F4C"/>
</svg>
