<?xml version="1.0" encoding="UTF-8"?>
<svg width="216px" height="65px" viewBox="0 0 216 65" version="1.1" xmlns="http://www.w3.org/2000/svg" xmlns:xlink="http://www.w3.org/1999/xlink">
    <!-- Generator: Sketch 46.2 (44496) - http://www.bohemiancoding.com/sketch -->
    <title>Page 1</title>
    <desc>Created with Sketch.</desc>
    <defs>
        <polygon id="path-1" points="0 0.39499379 0 56.6757524 69.087943 56.6757524 69.087943 0.39499379"></polygon>
    </defs>
    <g id="Symbols" stroke="none" stroke-width="1" fill="none" fill-rule="evenodd">
        <g id="WBD-Logo-Main">
            <g id="Page-1">
                <path d="M41.6278265,38.5160886 C35.1085776,38.5160886 29.8044616,43.8202045 29.8044616,50.3394535 C29.8044616,56.8594581 35.1085776,62.1635741 41.6278265,62.1635741 C48.1470755,62.1635741 53.4511915,56.8594581 53.4511915,50.3394535 C53.4511915,43.8202045 48.1470755,38.5160886 41.6278265,38.5160886 Z M41.6278265,64.9286062 C33.5836159,64.9286062 27.0394295,58.3836641 27.0394295,50.3394535 C27.0394295,42.2952429 33.5836159,35.7510565 41.6278265,35.7510565 C49.6720372,35.7510565 56.2169792,42.2952429 56.2169792,50.3394535 C56.2169792,58.3836641 49.6720372,64.9286062 41.6278265,64.9286062 Z" id="Fill-1" fill="#FFB300"></path>
                <path d="M73.1815356,18.6253137 C68.7260479,18.6253137 65.1010523,22.2503093 65.1010523,26.7057969 C65.1010523,31.1612846 68.7260479,34.7855245 73.1815356,34.7855245 C77.6370232,34.7855245 81.2620188,31.1612846 81.2620188,26.7057969 C81.2620188,22.2503093 77.6370232,18.6253137 73.1815356,18.6253137 M73.1815356,35.950027 C68.0837202,35.950027 63.9373055,31.8028566 63.9373055,26.7057969 C63.9373055,21.6079815 68.0837202,17.4608112 73.1815356,17.4608112 C78.279351,17.4608112 82.4257656,21.6079815 82.4257656,26.7057969 C82.4257656,31.8028566 78.279351,35.950027 73.1815356,35.950027" id="Fill-3" fill="#FFB300"></path>
                <path d="M73.1815356,13.2717007 C65.7736073,13.2717007 59.7470615,19.2982465 59.7470615,26.7054191 C59.7470615,34.1133474 65.7736073,40.1398932 73.1815356,40.1398932 C80.5887082,40.1398932 86.615254,34.1133474 86.615254,26.7054191 C86.615254,19.2982465 80.5887082,13.2717007 73.1815356,13.2717007 M73.1815356,41.4887815 C65.0300184,41.4887815 58.3981732,34.8569362 58.3981732,26.7054191 C58.3981732,18.5546576 65.0300184,11.9228124 73.1815356,11.9228124 C81.3330527,11.9228124 87.9641423,18.5546576 87.9641423,26.7054191 C87.9641423,34.8569362 81.3330527,41.4887815 73.1815356,41.4887815" id="Fill-5" fill="#FFB300"></path>
                <path d="M73.1815356,7.77972273 C62.8914448,7.77972273 54.5207805,16.2697844 54.5207805,26.7057214 C54.5207805,37.1416583 62.8914448,45.63172 73.1815356,45.63172 C83.4708707,45.63172 91.8422906,37.1416583 91.8422906,26.7057214 C91.8422906,16.2697844 83.4708707,7.77972273 73.1815356,7.77972273 M73.1815356,47.2806131 C61.9823621,47.2806131 52.8718874,38.050741 52.8718874,26.7057214 C52.8718874,15.3607017 61.9823621,6.13082958 73.1815356,6.13082958 C84.3799534,6.13082958 93.4911838,15.3607017 93.4911838,26.7057214 C93.4911838,38.050741 84.3799534,47.2806131 73.1815356,47.2806131" id="Fill-7" fill="#FFB300"></path>
                <path d="M73.1815356,1.94383495 C59.5279144,1.94383495 48.4194225,13.0523269 48.4194225,26.7059481 C48.4194225,40.3595693 59.5279144,51.4673055 73.1815356,51.4673055 C86.8351568,51.4673055 97.942893,40.3595693 97.942893,26.7059481 C97.942893,13.0523269 86.8351568,1.94383495 73.1815356,1.94383495 M73.1815356,53.4109137 C58.4556048,53.4109137 46.4758142,41.4311231 46.4758142,26.7059481 C46.4758142,11.9800173 58.4556048,0.000226703916 73.1815356,0.000226703916 C87.9067106,0.000226703916 99.8872569,11.9800173 99.8872569,26.7059481 C99.8872569,41.4311231 87.9067106,53.4109137 73.1815356,53.4109137" id="Fill-9" fill="#FFB300"></path>
                <path d="M27.5489088,64.9922344 L31.1474556,64.9922344 C26.5831501,61.7186299 23.6012379,56.3729515 23.6012379,50.3396046 C23.6012379,40.4001493 31.6885223,32.3128649 41.6279777,32.3128649 C51.5681887,32.3128649 59.6547174,40.4001493 59.6547174,50.3396046 C59.6547174,56.3729515 56.6728052,61.7186299 52.1084997,64.9922344 L55.7070466,64.9922344 C59.5587461,61.2901595 61.9640747,56.0925944 61.9640747,50.3396046 C61.9640747,39.1260733 52.8407534,30.0042633 41.6279777,30.0042633 C30.4144463,30.0042633 21.2926364,39.1260733 21.2926364,50.3396046 C21.2926364,56.0925944 23.6972092,61.2901595 27.5489088,64.9922344" id="Fill-11" fill="#FFB300"></path>
                <path d="M22.6505928,64.9922344 C19.5114993,60.9365014 17.6366579,55.8537996 17.6366579,50.3396046 C17.6366579,37.1106754 28.3990485,26.3482848 41.6279777,26.3482848 C54.8569069,26.3482848 65.6192975,37.1106754 65.6192975,50.3396046 C65.6192975,55.8537996 63.7444561,60.9365014 60.6053625,64.9922344 L63.0975942,64.9922344 C65.9563306,60.8178597 67.6309169,55.7706748 67.6309169,50.3396046 C67.6309169,36.0020933 55.9662447,24.3366654 41.6279777,24.3366654 C27.2897106,24.3366654 15.6250385,36.0020933 15.6250385,50.3396046 C15.6250385,55.7706748 17.298869,60.8178597 20.1576054,64.9922344 L22.6505928,64.9922344 Z" id="Fill-13" fill="#FFB300"></path>
                <path d="M15.8661003,64.9922344 C13.396539,60.6674794 11.9841736,55.6656353 11.9841736,50.3396046 C11.9841736,33.9934966 25.2818696,20.6958005 41.6279777,20.6958005 C57.97333,20.6958005 71.2717818,33.9934966 71.2717818,50.3396046 C71.2717818,55.6656353 69.8586607,60.6674794 67.3898551,64.9922344 L69.3055031,64.9922344 C71.6307297,60.6176045 72.9509021,55.6301184 72.9509021,50.3396046 C72.9509021,33.0677889 58.8997934,19.0166802 41.6279777,19.0166802 C24.356162,19.0166802 10.3050532,33.0677889 10.3050532,50.3396046 C10.3050532,55.6301184 11.6252257,60.6176045 13.9504522,64.9922344 L15.8661003,64.9922344 Z" id="Fill-15" fill="#FFB300"></path>
                <path d="M73.655649,64.9922344 L75.1095768,64.9922344 C77.0811452,60.5042526 78.1783922,55.548505 78.1783922,50.3396046 C78.1783922,44.9387617 77.0282476,39.7374181 74.7581857,34.8814203 L73.5558993,35.443646 C75.7428364,40.1228148 76.8514186,45.1344827 76.8514186,50.3396046 C76.8514186,55.5651299 75.7058081,60.5284343 73.655649,64.9922344" id="Fill-17" fill="#FFB300"></path>
                <path d="M9.60038188,64.9922344 C7.5502228,60.5284343 6.40461234,55.5651299 6.40461234,50.3396046 C6.40461234,30.9178801 22.2058753,15.1166171 41.6275998,15.1166171 C50.2045647,15.1166171 58.4694338,18.2345517 64.8987569,23.8976155 L65.7753453,22.9016296 C59.1042048,17.0254641 50.5279956,13.7888879 41.6275998,13.7888879 C21.4736217,13.7888879 5.07763875,30.1856265 5.07763875,50.3396046 C5.07763875,55.548505 6.17488571,60.5042526 8.1464541,64.9922344 L9.60038188,64.9922344 Z" id="Fill-19" fill="#FFB300"></path>
                <path d="M79.4203518,64.9922344 L80.5908997,64.9922344 C82.3115824,60.432463 83.2561821,55.4948517 83.2561821,50.3396046 C83.2561821,44.2329568 81.9639697,38.3484788 79.415062,32.8516645 L78.4220989,33.3111178 C80.9037511,38.6635973 82.1619578,44.3931609 82.1619578,50.3396046 C82.1619578,55.5039199 81.189398,60.4453096 79.4203518,64.9922344" id="Fill-21" fill="#FFB300"></path>
                <g id="Group-25" transform="translate(0.000000, 8.316482)">
                    <mask id="mask-2" fill="white">
                        <use xlink:href="#path-1"></use>
                    </mask>
                    <g id="Clip-24"></g>
                    <path d="M3.8357547,56.6757524 C2.06670847,52.1288275 1.09414867,47.1874378 1.09414867,42.0231226 C1.09414867,19.6731392 19.2773141,1.48921803 41.6280532,1.48921803 C51.4775827,1.48921803 60.9734541,5.06509447 68.3655131,11.5578946 L69.087943,10.7364708 C61.4956288,4.06759724 51.743582,0.39499379 41.6280532,0.39499379 C18.6742817,0.39499379 -7.55679721e-05,19.0693511 -7.55679721e-05,42.0231226 C-7.55679721e-05,47.1783697 0.944524084,52.115981 2.66520681,56.6757524 L3.8357547,56.6757524 Z" id="Fill-23" fill="#FAB900" mask="url(#mask-2)"></path>
                </g>
                <path d="M129.827297,24.0275924 C129.827297,20.9912713 131.996097,18.7015617 134.87297,18.7015617 C137.749087,18.7015617 139.918644,20.9912713 139.918644,24.0275924 C139.918644,27.0639135 137.749087,29.3528674 134.87297,29.3528674 C131.996097,29.3528674 129.827297,27.0639135 129.827297,24.0275924 M134.87297,31.0886637 C138.770766,31.0886637 141.71036,28.0530983 141.71036,24.0275924 C141.71036,20.0013309 138.770766,16.9657654 134.87297,16.9657654 C130.974418,16.9657654 128.034824,20.0013309 128.034824,24.0275924 C128.034824,28.0530983 130.974418,31.0886637 134.87297,31.0886637" id="Fill-26" fill="#003073"></path>
                <polygon id="Fill-28" fill="#003073" points="146.46555 21.4325127 150.554533 28.2857721 151.682763 28.2857721 155.771746 21.4325127 155.771746 30.9019353 157.564218 30.9019353 157.564218 17.1523427 156.290142 17.1523427 151.11827 25.8207448 145.946398 17.1523427 144.673834 17.1523427 144.673834 30.9019353 146.46555 30.9019353"></polygon>
                <path d="M162.218223,24.2135652 L165.413993,24.2135652 C166.345746,24.2135652 167.014522,24.4387578 167.517049,24.9231485 C167.997662,25.3863801 168.273485,26.0339976 168.273485,26.6989958 C168.273485,27.363994 167.997662,28.0116115 167.516294,28.4755988 C167.020568,28.9531884 166.372195,29.1662901 165.413993,29.1662901 L162.218223,29.1662901 L162.218223,24.2135652 Z M166.68429,21.8906057 C166.296627,22.2964057 165.772941,22.4777689 164.984767,22.4777689 L162.218223,22.4777689 L162.218223,18.8882902 L164.984767,18.8882902 C165.772185,18.8882902 166.296627,19.0688977 166.68429,19.4746977 C166.986562,19.7935945 167.152056,20.2220649 167.152056,20.6830295 C167.152056,21.1432385 166.986562,21.5724646 166.68429,21.8906057 L166.68429,21.8906057 Z M168.665682,29.8244871 C169.56872,29.008353 170.065957,27.8982595 170.065957,26.6989958 C170.065957,25.2148408 169.28005,23.8425265 168.002196,23.0717331 C168.602961,22.4203372 168.943773,21.5611294 168.943773,20.6830295 C168.943773,19.7210493 168.537973,18.7877848 167.829145,18.1212753 C167.122585,17.4600555 166.236172,17.1524939 165.039931,17.1524939 L160.426506,17.1524939 L160.426506,30.9020864 L165.470669,30.9020864 C166.827869,30.9020864 167.841992,30.5597635 168.665682,29.8244871 L168.665682,29.8244871 Z" id="Fill-30" fill="#003073"></path>
                <polygon id="Fill-32" fill="#003073" points="180.739026 29.1660634 174.574191 29.1660634 174.574191 17.1530229 172.781719 17.1530229 172.781719 30.9018597 180.739026 30.9018597"></polygon>
                <polygon id="Fill-34" fill="#003073" points="191.494918 29.1660634 185.330083 29.1660634 185.330083 24.2133385 190.000184 24.2133385 190.000184 22.4775422 185.330083 22.4775422 185.330083 18.8880635 191.308265 18.8880635 191.308265 17.1530229 183.537611 17.1530229 183.537611 30.9018597 191.494918 30.9018597"></polygon>
                <polygon id="Fill-36" fill="#003073" points="114.795618 30.9017841 118.026904 20.9139653 121.258946 30.9017841 122.493727 30.9017841 127.009669 17.1529473 125.164299 17.1529473 121.895984 27.2178455 118.6783 17.2542084 118.645806 17.1529473 117.408758 17.1529473 114.159335 27.2178455 110.891021 17.1529473 109.044895 17.1529473 113.561593 30.9017841"></polygon>
                <path d="M118.155597,41.8731202 C118.636964,42.3371075 118.912032,42.984725 118.912032,43.6489675 C118.912032,44.31321 118.636964,44.9615832 118.155597,45.4248149 C117.659871,45.9031601 117.009986,46.1155061 116.05254,46.1155061 L112.85677,46.1155061 L112.85677,41.1635369 L116.05254,41.1635369 C116.985049,41.1635369 117.653069,41.3887295 118.155597,41.8731202 M117.322837,38.8398218 C116.935929,39.2456218 116.410732,39.4277406 115.622558,39.4277406 L112.85677,39.4277406 L112.85677,35.8382619 L115.622558,35.8382619 C116.410732,35.8382619 116.935929,36.0196251 117.322082,36.4254251 C117.625109,36.7435662 117.791359,37.1720366 117.791359,37.6330013 C117.791359,38.0932102 117.625109,38.5224363 117.322837,38.8398218 M118.467692,35.071247 C117.761887,34.4100272 116.875475,34.1024656 115.679234,34.1024656 L111.065054,34.1024656 L111.065054,47.8520581 L116.10846,47.8520581 C117.465661,47.8520581 118.480539,47.5097352 119.30423,46.7744588 C120.206511,45.9590804 120.703749,44.8489869 120.703749,43.6489675 C120.703749,42.1640569 119.918597,40.7917425 118.641499,40.0217049 C119.241508,39.3703089 119.583076,38.5103454 119.583076,37.6330013 C119.583076,36.6702653 119.177275,35.7377565 118.467692,35.071247" id="Fill-38" fill="#003073"></path>
                <path d="M124.520611,40.9772619 C124.520611,37.9409407 126.689412,35.6512312 129.566285,35.6512312 C132.442402,35.6512312 134.611958,37.9409407 134.611958,40.9772619 C134.611958,44.013583 132.442402,46.3032925 129.566285,46.3032925 C126.689412,46.3032925 124.520611,44.013583 124.520611,40.9772619 M136.403675,40.9772619 C136.403675,36.951756 133.464081,33.9154349 129.566285,33.9154349 C125.669244,33.9154349 122.728895,36.951756 122.728895,40.9772619 C122.728895,45.0027677 125.669244,48.0390889 129.566285,48.0390889 C133.464081,48.0390889 136.403675,45.0027677 136.403675,40.9772619" id="Fill-40" fill="#003073"></path>
                <polygon id="Fill-42" fill="#003073" points="140.536714 34.1023145 139.292865 34.1023145 139.292865 47.851907 141.085337 47.851907 141.085337 37.5746628 149.369854 47.851907 150.613703 47.851907 150.613703 34.1023145 148.821986 34.1023145 148.821986 44.3803144"></polygon>
                <path d="M163.310407,40.9772619 C163.310407,42.6299334 162.607625,44.1261793 161.383424,45.0851368 C160.469807,45.7977428 159.30606,46.115884 157.610315,46.115884 L155.386349,46.115884 L155.386349,35.8378841 L157.610315,35.8378841 C159.305304,35.8378841 160.469051,36.1560252 161.382668,36.8686312 C162.607625,37.8275888 163.310407,39.3245903 163.310407,40.9772619 M162.36883,35.4011012 C161.165788,34.5146889 159.671809,34.1020878 157.666235,34.1020878 L153.594633,34.1020878 L153.594633,47.852436 L157.666235,47.852436 C159.672565,47.852436 161.166544,47.4398348 162.369586,46.5526669 C164.080445,45.2785908 165.101368,43.1951818 165.101368,40.9772619 C165.101368,38.7593419 164.080445,36.6751772 162.36883,35.4011012" id="Fill-44" fill="#003073"></path>
                <path d="M120.780526,57.9313143 C120.780526,59.5839858 120.077743,61.0809873 118.854298,62.0384335 C117.939926,62.7517952 116.776179,63.0699364 115.081189,63.0699364 L112.857224,63.0699364 L112.857224,52.7911808 L115.081189,52.7911808 C116.775423,52.7911808 117.93917,53.109322 118.853542,53.8226836 C120.077743,54.7801298 120.780526,56.277887 120.780526,57.9313143 M119.839704,52.3551536 L119.838949,52.3543979 C118.635907,51.4679856 117.142683,51.0553845 115.137109,51.0553845 L111.065507,51.0553845 L111.065507,64.8057327 L115.137109,64.8057327 C117.142683,64.8057327 118.636662,64.3931316 119.84046,63.5059636 C121.551319,62.2318875 122.572998,60.1484786 122.572998,57.9313143 C122.572998,55.7126386 121.551319,53.6284739 119.839704,52.3551536" id="Fill-46" fill="#003073"></path>
                <polygon id="Fill-48" fill="#003073" points="125.282865 64.8058082 127.073826 64.8058082 127.073826 51.0562157 125.282865 51.0562157"></polygon>
                <path d="M140.72707,61.3326287 L140.72707,61.3333844 C139.818743,62.5190458 138.274133,63.2565893 136.696274,63.2565893 C133.72343,63.2565893 131.48284,60.9668797 131.48284,57.9313143 C131.48284,54.8942375 133.675822,52.6045279 136.585189,52.6045279 C138.017958,52.6045279 139.412187,53.1992478 140.315224,54.1952337 L140.552508,54.4551875 L141.793334,53.2151171 L141.577965,52.977078 C140.357542,51.6372579 138.53711,50.8687316 136.585189,50.8687316 C132.654143,50.8687316 129.691123,53.9050527 129.691123,57.9313143 C129.691123,62.0225643 132.660189,64.9923856 136.752194,64.9923856 C138.806132,64.9923856 140.840422,64.0198258 142.0616,62.452546 L142.25581,62.2039274 L140.946217,61.0477374 L140.72707,61.3326287 Z" id="Fill-50" fill="#003073"></path>
                <polygon id="Fill-51" fill="#003073" points="154.460717 51.0556867 151.996446 51.0556867 146.300132 56.4754217 146.300132 51.0556867 144.508415 51.0556867 144.508415 64.8052793 146.300132 64.8052793 146.300132 58.6563134 152.554137 64.8052793 155.006318 64.8052793 147.642975 57.5794698"></polygon>
                <polygon id="Fill-52" fill="#003073" points="157.463486 64.8058082 159.255203 64.8058082 159.255203 51.0562157 157.463486 51.0562157"></polygon>
                <polygon id="Fill-53" fill="#003073" points="171.736538 61.3333844 163.451266 51.0553845 162.208173 51.0553845 162.208173 64.8057327 163.999889 64.8057327 163.999889 54.5277328 172.285162 64.8057327 173.527499 64.8057327 173.527499 51.0553845 171.736538 51.0553845"></polygon>
                <path d="M183.029643,57.7018143 L183.029643,57.7018143 C182.441724,57.3375767 181.800152,57.065532 181.180494,56.8040668 C179.84143,56.2380627 178.685996,55.7483822 178.685996,54.5861468 C178.685996,53.420133 179.631351,52.6047546 180.984773,52.6047546 C181.877987,52.6047546 182.565655,52.8896459 183.359875,53.5863826 L183.613783,53.8100638 L184.763172,52.4793118 L184.512286,52.2601647 C184.119333,51.9163304 182.923847,50.8689583 180.946989,50.8689583 C178.598337,50.8689583 176.893523,52.4558857 176.893523,54.6428228 C176.893523,56.2252161 177.928049,57.0647763 178.828063,57.6194452 C179.388022,57.9647909 180.012214,58.2292788 180.616002,58.4862099 C182.158344,59.1428956 183.377255,59.6620475 183.377255,61.1439355 C183.377255,62.4482387 182.154566,63.256816 181.021802,63.256816 C179.33588,63.256816 178.401104,62.3273299 177.775402,61.5179969 L177.556254,61.234617 L176.232304,62.4074319 L176.420468,62.6552949 C177.598572,64.205194 179.146205,64.9918566 181.021802,64.9918566 C183.386323,64.9918566 185.168972,63.3376737 185.168972,61.1439355 C185.168972,59.7217462 184.469213,58.5957834 183.029643,57.7018143" id="Fill-54" fill="#003073"></path>
                <path d="M199.298898,57.9313143 C199.298898,60.9668797 197.130097,63.2565893 194.253225,63.2565893 C191.377108,63.2565893 189.207551,60.9668797 189.207551,57.9313143 C189.207551,54.8942375 191.377108,52.6045279 194.253225,52.6045279 C197.130097,52.6045279 199.298898,54.8942375 199.298898,57.9313143 M194.253225,50.8687316 C190.355429,50.8687316 187.415834,53.9050527 187.415834,57.9313143 C187.415834,61.9560645 190.355429,64.9923856 194.253225,64.9923856 C198.151021,64.9923856 201.090615,61.9560645 201.090615,57.9313143 C201.090615,53.9050527 198.151021,50.8687316 194.253225,50.8687316" id="Fill-55" fill="#003073"></path>
                <polygon id="Fill-56" fill="#003073" points="213.41628 51.0556867 213.41628 61.3336866 205.131007 51.0556867 203.887914 51.0556867 203.887914 64.8052793 205.679631 64.8052793 205.679631 54.5280351 213.964903 64.8052793 215.208752 64.8052793 215.208752 51.0556867"></polygon>
            </g>
        </g>
    </g>
</svg>